<?xml version="1.0" encoding="UTF-8" standalone="no"?>
<!DOCTYPE svg PUBLIC "-//W3C//DTD SVG 1.1//EN"
 "http://www.w3.org/Graphics/SVG/1.1/DTD/svg11.dtd">
<!-- Generated by graphviz version 2.40.1 (20161225.0304)
 -->
<!-- Title: dependencies Pages: 1 -->
<svg width="1243pt" height="284pt"
 viewBox="0.00 0.00 1243.00 284.00" xmlns="http://www.w3.org/2000/svg" xmlns:xlink="http://www.w3.org/1999/xlink">
<g id="graph0" class="graph" transform="scale(1 1) rotate(0) translate(4 280)">
<title>dependencies</title>
<polygon fill="#ffffff" stroke="transparent" points="-4,4 -4,-280 1239,-280 1239,4 -4,4"/>
<text text-anchor="start" x="596.5091" y="-42.4" font-family="sans-serif" font-weight="bold" font-size="14.00" fill="#000000">Legend</text>
<polygon fill="#ffffb3" stroke="transparent" points="383.5,-10 383.5,-30 403.5,-30 403.5,-10 383.5,-10"/>
<text text-anchor="start" x="407.129" y="-15.4" font-family="sans-serif" font-size="14.00" fill="#000000"> &#160;Declarations</text>
<polygon fill="#8dd3c7" stroke="transparent" points="496.5,-10 496.5,-30 516.5,-30 516.5,-10 496.5,-10"/>
<text text-anchor="start" x="520.2251" y="-15.4" font-family="sans-serif" font-size="14.00" fill="#000000"> &#160;Module</text>
<polygon fill="#80b1d3" stroke="transparent" points="582.5,-10 582.5,-30 602.5,-30 602.5,-10 582.5,-10"/>
<text text-anchor="start" x="606.2812" y="-15.4" font-family="sans-serif" font-size="14.00" fill="#000000"> &#160;Bootstrap</text>
<polygon fill="#fdb462" stroke="transparent" points="679.5,-10 679.5,-30 699.5,-30 699.5,-10 679.5,-10"/>
<text text-anchor="start" x="703.1732" y="-15.4" font-family="sans-serif" font-size="14.00" fill="#000000"> &#160;Providers</text>
<polygon fill="#fb8072" stroke="transparent" points="775.5,-10 775.5,-30 795.5,-30 795.5,-10 775.5,-10"/>
<text text-anchor="start" x="799.2258" y="-15.4" font-family="sans-serif" font-size="14.00" fill="#000000"> &#160;Exports</text>
<g id="clust1" class="cluster">
<title>cluster_CoreModule</title>
<polygon fill="none" stroke="#000000" stroke-dasharray="1,5" points="8,-70 8,-268 1227,-268 1227,-70 8,-70"/>
</g>
<g id="clust2" class="cluster">
<title>cluster_CoreModule_declarations</title>
<polygon fill="none" stroke="#000000" points="833,-78 833,-130 1219,-130 1219,-78 833,-78"/>
</g>
<g id="clust5" class="cluster">
<title>cluster_CoreModule_imports</title>
<polygon fill="none" stroke="#000000" points="675,-78 675,-130 825,-130 825,-78 675,-78"/>
</g>
<g id="clust6" class="cluster">
<title>cluster_CoreModule_exports</title>
<polygon fill="none" stroke="#000000" points="321,-208 321,-260 870,-260 870,-208 321,-208"/>
</g>
<g id="clust8" class="cluster">
<title>cluster_CoreModule_providers</title>
<polygon fill="none" stroke="#000000" points="16,-78 16,-130 667,-130 667,-78 16,-78"/>
</g>
<!-- BottomNavigationComponent -->
<g id="node1" class="node">
<title>BottomNavigationComponent</title>
<polygon fill="#ffffb3" stroke="#000000" points="1210.5489,-122 1025.4511,-122 1025.4511,-86 1210.5489,-86 1210.5489,-122"/>
<text text-anchor="middle" x="1118" y="-99.8" font-family="Times,serif" font-size="14.00" fill="#000000">BottomNavigationComponent</text>
</g>
<!-- CoreModule -->
<g id="node3" class="node">
<title>CoreModule</title>
<polygon fill="#8dd3c7" stroke="#000000" points="629.2619,-187 626.2619,-191 605.2619,-191 602.2619,-187 542.7381,-187 542.7381,-151 629.2619,-151 629.2619,-187"/>
<text text-anchor="middle" x="586" y="-164.8" font-family="Times,serif" font-size="14.00" fill="#000000">CoreModule</text>
</g>
<!-- BottomNavigationComponent&#45;&gt;CoreModule -->
<g id="edge1" class="edge">
<title>BottomNavigationComponent&#45;&gt;CoreModule</title>
<path fill="none" stroke="#000000" d="M1118,-122.1289C1118,-142.5724 1118,-173 1118,-173 1118,-173 639.5358,-173 639.5358,-173"/>
<polygon fill="#000000" stroke="#000000" points="639.5358,-169.5001 629.5358,-173 639.5358,-176.5001 639.5358,-169.5001"/>
</g>
<!-- TopNavigationComponent -->
<g id="node2" class="node">
<title>TopNavigationComponent</title>
<polygon fill="#ffffb3" stroke="#000000" points="1007.0926,-122 840.9074,-122 840.9074,-86 1007.0926,-86 1007.0926,-122"/>
<text text-anchor="middle" x="924" y="-99.8" font-family="Times,serif" font-size="14.00" fill="#000000">TopNavigationComponent</text>
</g>
<!-- TopNavigationComponent&#45;&gt;CoreModule -->
<g id="edge2" class="edge">
<title>TopNavigationComponent&#45;&gt;CoreModule</title>
<path fill="none" stroke="#000000" d="M851.239,-122.2667C851.239,-140.5552 851.239,-166 851.239,-166 851.239,-166 639.5018,-166 639.5018,-166"/>
<polygon fill="#000000" stroke="#000000" points="639.5018,-162.5001 629.5018,-166 639.5018,-169.5001 639.5018,-162.5001"/>
</g>
<!-- BottomNavigationComponent  -->
<g id="node5" class="node">
<title>BottomNavigationComponent </title>
<polygon fill="#fb8072" stroke="#000000" points="861.5484,-252 672.4516,-252 672.4516,-216 861.5484,-216 861.5484,-252"/>
<text text-anchor="middle" x="767" y="-229.8" font-family="Times,serif" font-size="14.00" fill="#000000">BottomNavigationComponent </text>
</g>
<!-- CoreModule&#45;&gt;BottomNavigationComponent  -->
<g id="edge4" class="edge">
<title>CoreModule&#45;&gt;BottomNavigationComponent </title>
<path fill="none" stroke="#000000" stroke-dasharray="5,2" d="M629.4295,-180C653.1291,-180 677.6923,-180 677.6923,-180 677.6923,-180 677.6923,-205.7181 677.6923,-205.7181"/>
<polygon fill="#000000" stroke="#000000" points="674.1924,-205.718 677.6923,-215.7181 681.1924,-205.7181 674.1924,-205.718"/>
</g>
<!-- CoreMaterialModule  -->
<g id="node6" class="node">
<title>CoreMaterialModule </title>
<polygon fill="#fb8072" stroke="#000000" points="654.6828,-252 517.3172,-252 517.3172,-216 654.6828,-216 654.6828,-252"/>
<text text-anchor="middle" x="586" y="-229.8" font-family="Times,serif" font-size="14.00" fill="#000000">CoreMaterialModule </text>
</g>
<!-- CoreModule&#45;&gt;CoreMaterialModule  -->
<g id="edge5" class="edge">
<title>CoreModule&#45;&gt;CoreMaterialModule </title>
<path fill="none" stroke="#000000" stroke-dasharray="5,2" d="M586,-187.1061C586,-187.1061 586,-205.991 586,-205.991"/>
<polygon fill="#000000" stroke="#000000" points="582.5001,-205.9909 586,-215.991 589.5001,-205.991 582.5001,-205.9909"/>
</g>
<!-- TopNavigationComponent  -->
<g id="node7" class="node">
<title>TopNavigationComponent </title>
<polygon fill="#fb8072" stroke="#000000" points="498.5931,-252 329.4069,-252 329.4069,-216 498.5931,-216 498.5931,-252"/>
<text text-anchor="middle" x="414" y="-229.8" font-family="Times,serif" font-size="14.00" fill="#000000">TopNavigationComponent </text>
</g>
<!-- CoreModule&#45;&gt;TopNavigationComponent  -->
<g id="edge6" class="edge">
<title>CoreModule&#45;&gt;TopNavigationComponent </title>
<path fill="none" stroke="#000000" stroke-dasharray="5,2" d="M542.7211,-180C492.4231,-180 416.2321,-180 416.2321,-180 416.2321,-180 416.2321,-205.7181 416.2321,-205.7181"/>
<polygon fill="#000000" stroke="#000000" points="412.7322,-205.718 416.2321,-215.7181 419.7322,-205.7181 412.7322,-205.718"/>
</g>
<!-- CoreMaterialModule -->
<g id="node4" class="node">
<title>CoreMaterialModule</title>
<polygon fill="#8dd3c7" stroke="#000000" points="817.1825,-122 814.1825,-126 793.1825,-126 790.1825,-122 682.8175,-122 682.8175,-86 817.1825,-86 817.1825,-122"/>
<text text-anchor="middle" x="750" y="-99.8" font-family="Times,serif" font-size="14.00" fill="#000000">CoreMaterialModule</text>
</g>
<!-- CoreMaterialModule&#45;&gt;CoreModule -->
<g id="edge3" class="edge">
<title>CoreMaterialModule&#45;&gt;CoreModule</title>
<path fill="none" stroke="#000000" d="M750,-122.0091C750,-138.0494 750,-159 750,-159 750,-159 639.5184,-159 639.5184,-159"/>
<polygon fill="#000000" stroke="#000000" points="639.5185,-155.5001 629.5184,-159 639.5184,-162.5001 639.5185,-155.5001"/>
</g>
<!-- AuthInterceptor -->
<g id="node8" class="node">
<title>AuthInterceptor</title>
<ellipse fill="#fdb462" stroke="#000000" cx="586" cy="-104" rx="72.9121" ry="18"/>
<text text-anchor="middle" x="586" y="-99.8" font-family="Times,serif" font-size="14.00" fill="#000000">AuthInterceptor</text>
</g>
<!-- AuthInterceptor&#45;&gt;CoreModule -->
<g id="edge7" class="edge">
<title>AuthInterceptor&#45;&gt;CoreModule</title>
<path fill="none" stroke="#000000" d="M586,-122.1061C586,-122.1061 586,-140.991 586,-140.991"/>
<polygon fill="#000000" stroke="#000000" points="582.5001,-140.9909 586,-150.991 589.5001,-140.991 582.5001,-140.9909"/>
</g>
<!-- AuthService -->
<g id="node9" class="node">
<title>AuthService</title>
<ellipse fill="#fdb462" stroke="#000000" cx="436" cy="-104" rx="59.1083" ry="18"/>
<text text-anchor="middle" x="436" y="-99.8" font-family="Times,serif" font-size="14.00" fill="#000000">AuthService</text>
</g>
<!-- AuthService&#45;&gt;CoreModule -->
<g id="edge8" class="edge">
<title>AuthService&#45;&gt;CoreModule</title>
<path fill="none" stroke="#000000" d="M455.7679,-121.1009C455.7679,-137.2462 455.7679,-159 455.7679,-159 455.7679,-159 532.6346,-159 532.6346,-159"/>
<polygon fill="#000000" stroke="#000000" points="532.6346,-162.5001 542.6346,-159 532.6346,-155.5001 532.6346,-162.5001"/>
</g>
<!-- ErrorInterceptor -->
<g id="node10" class="node">
<title>ErrorInterceptor</title>
<ellipse fill="#fdb462" stroke="#000000" cx="285" cy="-104" rx="73.5329" ry="18"/>
<text text-anchor="middle" x="285" y="-99.8" font-family="Times,serif" font-size="14.00" fill="#000000">ErrorInterceptor</text>
</g>
<!-- ErrorInterceptor&#45;&gt;CoreModule -->
<g id="edge9" class="edge">
<title>ErrorInterceptor&#45;&gt;CoreModule</title>
<path fill="none" stroke="#000000" d="M343.9849,-115.0844C343.9849,-132.9178 343.9849,-166 343.9849,-166 343.9849,-166 532.7325,-166 532.7325,-166"/>
<polygon fill="#000000" stroke="#000000" points="532.7326,-169.5001 542.7325,-166 532.7325,-162.5001 532.7326,-169.5001"/>
</g>
<!-- ResponsiveService -->
<g id="node11" class="node">
<title>ResponsiveService</title>
<ellipse fill="#fdb462" stroke="#000000" cx="109" cy="-104" rx="84.5285" ry="18"/>
<text text-anchor="middle" x="109" y="-99.8" font-family="Times,serif" font-size="14.00" fill="#000000">ResponsiveService</text>
</g>
<!-- ResponsiveService&#45;&gt;CoreModule -->
<g id="edge10" class="edge">
<title>ResponsiveService&#45;&gt;CoreModule</title>
<path fill="none" stroke="#000000" d="M109,-122.1289C109,-142.5724 109,-173 109,-173 109,-173 532.4049,-173 532.4049,-173"/>
<polygon fill="#000000" stroke="#000000" points="532.405,-176.5001 542.4049,-173 532.4049,-169.5001 532.405,-176.5001"/>
</g>
</g>
</svg>
