<?xml version="1.0" encoding="UTF-8" standalone="no"?>
<!DOCTYPE svg PUBLIC "-//W3C//DTD SVG 1.1//EN"
 "http://www.w3.org/Graphics/SVG/1.1/DTD/svg11.dtd">
<!-- Generated by graphviz version 2.40.1 (20161225.0304)
 -->
<!-- Title: dependencies Pages: 1 -->
<svg width="1056pt" height="284pt"
 viewBox="0.00 0.00 1056.00 284.00" xmlns="http://www.w3.org/2000/svg" xmlns:xlink="http://www.w3.org/1999/xlink">
<g id="graph0" class="graph" transform="scale(1 1) rotate(0) translate(4 280)">
<title>dependencies</title>
<polygon fill="#ffffff" stroke="transparent" points="-4,4 -4,-280 1052,-280 1052,4 -4,4"/>
<text text-anchor="start" x="503.0091" y="-42.4" font-family="sans-serif" font-weight="bold" font-size="14.00" fill="#000000">Legend</text>
<polygon fill="#ffffb3" stroke="transparent" points="290,-10 290,-30 310,-30 310,-10 290,-10"/>
<text text-anchor="start" x="313.629" y="-15.4" font-family="sans-serif" font-size="14.00" fill="#000000"> &#160;Declarations</text>
<polygon fill="#8dd3c7" stroke="transparent" points="403,-10 403,-30 423,-30 423,-10 403,-10"/>
<text text-anchor="start" x="426.7251" y="-15.4" font-family="sans-serif" font-size="14.00" fill="#000000"> &#160;Module</text>
<polygon fill="#80b1d3" stroke="transparent" points="489,-10 489,-30 509,-30 509,-10 489,-10"/>
<text text-anchor="start" x="512.7812" y="-15.4" font-family="sans-serif" font-size="14.00" fill="#000000"> &#160;Bootstrap</text>
<polygon fill="#fdb462" stroke="transparent" points="586,-10 586,-30 606,-30 606,-10 586,-10"/>
<text text-anchor="start" x="609.6732" y="-15.4" font-family="sans-serif" font-size="14.00" fill="#000000"> &#160;Providers</text>
<polygon fill="#fb8072" stroke="transparent" points="682,-10 682,-30 702,-30 702,-10 682,-10"/>
<text text-anchor="start" x="705.7258" y="-15.4" font-family="sans-serif" font-size="14.00" fill="#000000"> &#160;Exports</text>
<g id="clust1" class="cluster">
<title>cluster_CoreModule</title>
<polygon fill="none" stroke="#000000" stroke-dasharray="1,5" points="8,-70 8,-268 1040,-268 1040,-70 8,-70"/>
</g>
<g id="clust2" class="cluster">
<title>cluster_CoreModule_declarations</title>
<polygon fill="none" stroke="#000000" points="646,-78 646,-130 1032,-130 1032,-78 646,-78"/>
</g>
<g id="clust5" class="cluster">
<title>cluster_CoreModule_imports</title>
<polygon fill="none" stroke="#000000" points="488,-78 488,-130 638,-130 638,-78 488,-78"/>
</g>
<g id="clust6" class="cluster">
<title>cluster_CoreModule_exports</title>
<polygon fill="none" stroke="#000000" points="216,-208 216,-260 765,-260 765,-208 216,-208"/>
</g>
<g id="clust8" class="cluster">
<title>cluster_CoreModule_providers</title>
<polygon fill="none" stroke="#000000" points="16,-78 16,-130 480,-130 480,-78 16,-78"/>
</g>
<!-- BottomNavigationComponent -->
<g id="node1" class="node">
<title>BottomNavigationComponent</title>
<polygon fill="#ffffb3" stroke="#000000" points="1023.5489,-122 838.4511,-122 838.4511,-86 1023.5489,-86 1023.5489,-122"/>
<text text-anchor="middle" x="931" y="-99.8" font-family="Times,serif" font-size="14.00" fill="#000000">BottomNavigationComponent</text>
</g>
<!-- CoreModule -->
<g id="node3" class="node">
<title>CoreModule</title>
<polygon fill="#8dd3c7" stroke="#000000" points="524.2619,-187 521.2619,-191 500.2619,-191 497.2619,-187 437.7381,-187 437.7381,-151 524.2619,-151 524.2619,-187"/>
<text text-anchor="middle" x="481" y="-164.8" font-family="Times,serif" font-size="14.00" fill="#000000">CoreModule</text>
</g>
<!-- BottomNavigationComponent&#45;&gt;CoreModule -->
<g id="edge1" class="edge">
<title>BottomNavigationComponent&#45;&gt;CoreModule</title>
<path fill="none" stroke="#000000" d="M931,-122.1061C931,-141.3391 931,-169 931,-169 931,-169 534.5568,-169 534.5568,-169"/>
<polygon fill="#000000" stroke="#000000" points="534.5568,-165.5001 524.5568,-169 534.5567,-172.5001 534.5568,-165.5001"/>
</g>
<!-- TopNavigationComponent -->
<g id="node2" class="node">
<title>TopNavigationComponent</title>
<polygon fill="#ffffb3" stroke="#000000" points="820.0926,-122 653.9074,-122 653.9074,-86 820.0926,-86 820.0926,-122"/>
<text text-anchor="middle" x="737" y="-99.8" font-family="Times,serif" font-size="14.00" fill="#000000">TopNavigationComponent</text>
</g>
<!-- TopNavigationComponent&#45;&gt;CoreModule -->
<g id="edge2" class="edge">
<title>TopNavigationComponent&#45;&gt;CoreModule</title>
<path fill="none" stroke="#000000" d="M705.2389,-122.027C705.2389,-138.3976 705.2389,-160 705.2389,-160 705.2389,-160 534.5014,-160 534.5014,-160"/>
<polygon fill="#000000" stroke="#000000" points="534.5014,-156.5001 524.5014,-160 534.5014,-163.5001 534.5014,-156.5001"/>
</g>
<!-- BottomNavigationComponent  -->
<g id="node5" class="node">
<title>BottomNavigationComponent </title>
<polygon fill="#fb8072" stroke="#000000" points="756.5484,-252 567.4516,-252 567.4516,-216 756.5484,-216 756.5484,-252"/>
<text text-anchor="middle" x="662" y="-229.8" font-family="Times,serif" font-size="14.00" fill="#000000">BottomNavigationComponent </text>
</g>
<!-- CoreModule&#45;&gt;BottomNavigationComponent  -->
<g id="edge4" class="edge">
<title>CoreModule&#45;&gt;BottomNavigationComponent </title>
<path fill="none" stroke="#000000" stroke-dasharray="5,2" d="M524.5236,-178C558.0757,-178 598.7835,-178 598.7835,-178 598.7835,-178 598.7835,-205.973 598.7835,-205.973"/>
<polygon fill="#000000" stroke="#000000" points="595.2836,-205.973 598.7835,-215.973 602.2836,-205.973 595.2836,-205.973"/>
</g>
<!-- CoreMaterialModule  -->
<g id="node6" class="node">
<title>CoreMaterialModule </title>
<polygon fill="#fb8072" stroke="#000000" points="549.6828,-252 412.3172,-252 412.3172,-216 549.6828,-216 549.6828,-252"/>
<text text-anchor="middle" x="481" y="-229.8" font-family="Times,serif" font-size="14.00" fill="#000000">CoreMaterialModule </text>
</g>
<!-- CoreModule&#45;&gt;CoreMaterialModule  -->
<g id="edge5" class="edge">
<title>CoreModule&#45;&gt;CoreMaterialModule </title>
<path fill="none" stroke="#000000" stroke-dasharray="5,2" d="M481,-187.1061C481,-187.1061 481,-205.991 481,-205.991"/>
<polygon fill="#000000" stroke="#000000" points="477.5001,-205.9909 481,-215.991 484.5001,-205.991 477.5001,-205.9909"/>
</g>
<!-- TopNavigationComponent  -->
<g id="node7" class="node">
<title>TopNavigationComponent </title>
<polygon fill="#fb8072" stroke="#000000" points="393.5931,-252 224.4069,-252 224.4069,-216 393.5931,-216 393.5931,-252"/>
<text text-anchor="middle" x="309" y="-229.8" font-family="Times,serif" font-size="14.00" fill="#000000">TopNavigationComponent </text>
</g>
<!-- CoreModule&#45;&gt;TopNavigationComponent  -->
<g id="edge6" class="edge">
<title>CoreModule&#45;&gt;TopNavigationComponent </title>
<path fill="none" stroke="#000000" stroke-dasharray="5,2" d="M437.6742,-178C402.9675,-178 360.0453,-178 360.0453,-178 360.0453,-178 360.0453,-205.973 360.0453,-205.973"/>
<polygon fill="#000000" stroke="#000000" points="356.5454,-205.973 360.0453,-215.973 363.5454,-205.973 356.5454,-205.973"/>
</g>
<!-- CoreMaterialModule -->
<g id="node4" class="node">
<title>CoreMaterialModule</title>
<polygon fill="#8dd3c7" stroke="#000000" points="630.1825,-122 627.1825,-126 606.1825,-126 603.1825,-122 495.8175,-122 495.8175,-86 630.1825,-86 630.1825,-122"/>
<text text-anchor="middle" x="563" y="-99.8" font-family="Times,serif" font-size="14.00" fill="#000000">CoreMaterialModule</text>
</g>
<!-- CoreMaterialModule&#45;&gt;CoreModule -->
<g id="edge3" class="edge">
<title>CoreMaterialModule&#45;&gt;CoreModule</title>
<path fill="none" stroke="#000000" d="M510.1448,-122.1061C510.1448,-122.1061 510.1448,-140.991 510.1448,-140.991"/>
<polygon fill="#000000" stroke="#000000" points="506.6449,-140.9909 510.1448,-150.991 513.6449,-140.991 506.6449,-140.9909"/>
</g>
<!-- AuthInterceptor -->
<g id="node8" class="node">
<title>AuthInterceptor</title>
<ellipse fill="#fdb462" stroke="#000000" cx="399" cy="-104" rx="72.9121" ry="18"/>
<text text-anchor="middle" x="399" y="-99.8" font-family="Times,serif" font-size="14.00" fill="#000000">AuthInterceptor</text>
</g>
<!-- AuthInterceptor&#45;&gt;CoreModule -->
<g id="edge7" class="edge">
<title>AuthInterceptor&#45;&gt;CoreModule</title>
<path fill="none" stroke="#000000" d="M454.6625,-115.6207C454.6625,-115.6207 454.6625,-140.8534 454.6625,-140.8534"/>
<polygon fill="#000000" stroke="#000000" points="451.1626,-140.8533 454.6625,-150.8534 458.1626,-140.8534 451.1626,-140.8533"/>
</g>
<!-- AuthService -->
<g id="node9" class="node">
<title>AuthService</title>
<ellipse fill="#fdb462" stroke="#000000" cx="249" cy="-104" rx="59.1083" ry="18"/>
<text text-anchor="middle" x="249" y="-99.8" font-family="Times,serif" font-size="14.00" fill="#000000">AuthService</text>
</g>
<!-- AuthService&#45;&gt;CoreModule -->
<g id="edge8" class="edge">
<title>AuthService&#45;&gt;CoreModule</title>
<path fill="none" stroke="#000000" d="M266.2538,-121.4118C266.2538,-137.8507 266.2538,-160 266.2538,-160 266.2538,-160 427.5429,-160 427.5429,-160"/>
<polygon fill="#000000" stroke="#000000" points="427.5429,-163.5001 437.5429,-160 427.5429,-156.5001 427.5429,-163.5001"/>
</g>
<!-- ErrorInterceptor -->
<g id="node10" class="node">
<title>ErrorInterceptor</title>
<ellipse fill="#fdb462" stroke="#000000" cx="98" cy="-104" rx="73.5329" ry="18"/>
<text text-anchor="middle" x="98" y="-99.8" font-family="Times,serif" font-size="14.00" fill="#000000">ErrorInterceptor</text>
</g>
<!-- ErrorInterceptor&#45;&gt;CoreModule -->
<g id="edge9" class="edge">
<title>ErrorInterceptor&#45;&gt;CoreModule</title>
<path fill="none" stroke="#000000" d="M98,-122.1061C98,-141.3391 98,-169 98,-169 98,-169 427.4379,-169 427.4379,-169"/>
<polygon fill="#000000" stroke="#000000" points="427.438,-172.5001 437.4379,-169 427.4379,-165.5001 427.438,-172.5001"/>
</g>
</g>
</svg>
