<?xml version="1.0" encoding="UTF-8" standalone="no"?>
<!DOCTYPE svg PUBLIC "-//W3C//DTD SVG 1.1//EN"
 "http://www.w3.org/Graphics/SVG/1.1/DTD/svg11.dtd">
<!-- Generated by graphviz version 2.40.1 (20161225.0304)
 -->
<!-- Title: dependencies Pages: 1 -->
<svg width="504pt" height="211pt"
 viewBox="0.00 0.00 504.00 211.00" xmlns="http://www.w3.org/2000/svg" xmlns:xlink="http://www.w3.org/1999/xlink">
<g id="graph0" class="graph" transform="scale(1 1) rotate(0) translate(4 207)">
<title>dependencies</title>
<polygon fill="#ffffff" stroke="transparent" points="-4,4 -4,-207 500,-207 500,4 -4,4"/>
<text text-anchor="start" x="227.0091" y="-42.4" font-family="sans-serif" font-weight="bold" font-size="14.00" fill="#000000">Legend</text>
<polygon fill="#ffffb3" stroke="transparent" points="14,-10 14,-30 34,-30 34,-10 14,-10"/>
<text text-anchor="start" x="37.629" y="-15.4" font-family="sans-serif" font-size="14.00" fill="#000000"> &#160;Declarations</text>
<polygon fill="#8dd3c7" stroke="transparent" points="127,-10 127,-30 147,-30 147,-10 127,-10"/>
<text text-anchor="start" x="150.7251" y="-15.4" font-family="sans-serif" font-size="14.00" fill="#000000"> &#160;Module</text>
<polygon fill="#80b1d3" stroke="transparent" points="213,-10 213,-30 233,-30 233,-10 213,-10"/>
<text text-anchor="start" x="236.7812" y="-15.4" font-family="sans-serif" font-size="14.00" fill="#000000"> &#160;Bootstrap</text>
<polygon fill="#fdb462" stroke="transparent" points="310,-10 310,-30 330,-30 330,-10 310,-10"/>
<text text-anchor="start" x="333.6732" y="-15.4" font-family="sans-serif" font-size="14.00" fill="#000000"> &#160;Providers</text>
<polygon fill="#fb8072" stroke="transparent" points="406,-10 406,-30 426,-30 426,-10 406,-10"/>
<text text-anchor="start" x="429.7258" y="-15.4" font-family="sans-serif" font-size="14.00" fill="#000000"> &#160;Exports</text>
<g id="clust1" class="cluster">
<title>cluster_EventsModule</title>
<polygon fill="none" stroke="#000000" stroke-dasharray="1,5" points="20.5,-70 20.5,-195 475.5,-195 475.5,-70 20.5,-70"/>
</g>
<g id="clust3" class="cluster">
<title>cluster_EventsModule_imports</title>
<polygon fill="none" stroke="#000000" points="309.5,-78 309.5,-130 467.5,-130 467.5,-78 309.5,-78"/>
</g>
<g id="clust6" class="cluster">
<title>cluster_EventsModule_providers</title>
<polygon fill="none" stroke="#000000" points="28.5,-78 28.5,-130 301.5,-130 301.5,-78 28.5,-78"/>
</g>
<!-- EventsRoutingModule -->
<g id="node1" class="node">
<title>EventsRoutingModule</title>
<polygon fill="#8dd3c7" stroke="#000000" points="459.7702,-122 456.7702,-126 435.7702,-126 432.7702,-122 317.2298,-122 317.2298,-86 459.7702,-86 459.7702,-122"/>
<text text-anchor="middle" x="388.5" y="-99.8" font-family="Times,serif" font-size="14.00" fill="#000000">EventsRoutingModule</text>
</g>
<!-- EventsModule -->
<g id="node2" class="node">
<title>EventsModule</title>
<polygon fill="#8dd3c7" stroke="#000000" points="279.1528,-187 276.1528,-191 255.1528,-191 252.1528,-187 181.8472,-187 181.8472,-151 279.1528,-151 279.1528,-187"/>
<text text-anchor="middle" x="230.5" y="-164.8" font-family="Times,serif" font-size="14.00" fill="#000000">EventsModule</text>
</g>
<!-- EventsRoutingModule&#45;&gt;EventsModule -->
<g id="edge1" class="edge">
<title>EventsRoutingModule&#45;&gt;EventsModule</title>
<path fill="none" stroke="#000000" d="M388.5,-122.1061C388.5,-141.3391 388.5,-169 388.5,-169 388.5,-169 289.1944,-169 289.1944,-169"/>
<polygon fill="#000000" stroke="#000000" points="289.1945,-165.5001 279.1944,-169 289.1944,-172.5001 289.1945,-165.5001"/>
</g>
<!-- EventService -->
<g id="node3" class="node">
<title>EventService</title>
<ellipse fill="#fdb462" stroke="#000000" cx="230.5" cy="-104" rx="62.5373" ry="18"/>
<text text-anchor="middle" x="230.5" y="-99.8" font-family="Times,serif" font-size="14.00" fill="#000000">EventService</text>
</g>
<!-- EventService&#45;&gt;EventsModule -->
<g id="edge2" class="edge">
<title>EventService&#45;&gt;EventsModule</title>
<path fill="none" stroke="#000000" d="M230.5,-122.1061C230.5,-122.1061 230.5,-140.991 230.5,-140.991"/>
<polygon fill="#000000" stroke="#000000" points="227.0001,-140.9909 230.5,-150.991 234.0001,-140.991 227.0001,-140.9909"/>
</g>
<!-- PostService -->
<g id="node4" class="node">
<title>PostService</title>
<ellipse fill="#fdb462" stroke="#000000" cx="93.5" cy="-104" rx="56.7561" ry="18"/>
<text text-anchor="middle" x="93.5" y="-99.8" font-family="Times,serif" font-size="14.00" fill="#000000">PostService</text>
</g>
<!-- PostService&#45;&gt;EventsModule -->
<g id="edge3" class="edge">
<title>PostService&#45;&gt;EventsModule</title>
<path fill="none" stroke="#000000" d="M93.5,-122.1061C93.5,-141.3391 93.5,-169 93.5,-169 93.5,-169 171.8132,-169 171.8132,-169"/>
<polygon fill="#000000" stroke="#000000" points="171.8132,-172.5001 181.8132,-169 171.8131,-165.5001 171.8132,-172.5001"/>
</g>
</g>
</svg>
