<?xml version="1.0" standalone="no"?>
<!DOCTYPE svg PUBLIC "-//W3C//DTD SVG 20010904//EN"
 "http://www.w3.org/TR/2001/REC-SVG-20010904/DTD/svg10.dtd">
<svg version="1.0" xmlns="http://www.w3.org/2000/svg"
 width="512.000000pt" height="512.000000pt" viewBox="0 0 512.000000 512.000000"
 preserveAspectRatio="xMidYMid meet">
<metadata>
Created by potrace 1.11, written by Peter Selinger 2001-2013
</metadata>
<g transform="translate(0.000000,512.000000) scale(0.100000,-0.100000)"
fill="#000000" stroke="none">
<path d="M752 5109 c-347 -45 -630 -300 -724 -651 l-22 -83 -3 -1544 -3 -1543
22 6 c69 19 160 29 182 21 14 -6 57 -55 101 -115 l75 -105 -37 -8 c-117 -26
-166 -42 -251 -79 l-95 -41 6 -116 c13 -239 88 -418 241 -580 115 -120 254
-201 423 -244 l88 -22 1810 0 c1693 0 1814 1 1878 18 330 84 567 320 650 644
l22 88 0 1810 c0 1693 -1 1814 -18 1878 -84 327 -315 563 -639 649 l-83 23
-1780 1 c-979 1 -1808 -2 -1843 -7z m296 -185 c91 -85 105 -104 78 -104 -31 0
-215 -103 -286 -159 -41 -33 -79 -57 -86 -53 -6 4 -57 43 -113 87 l-103 80 70
65 c80 74 160 126 236 152 91 31 101 28 204 -68z m3547 -157 c69 -29 181 -54
282 -63 l70 -7 11 -91 c7 -50 15 -112 18 -138 l7 -48 -89 0 c-105 0 -198 18
-274 53 -98 45 -97 44 -104 196 -6 107 -4 132 6 128 7 -3 40 -17 73 -30z
m-957 -87 c29 -74 85 -171 144 -247 26 -35 37 -56 31 -66 -4 -7 -44 -57 -87
-110 -50 -61 -83 -94 -91 -89 -22 13 -107 114 -141 168 -40 63 -69 133 -79
193 l-7 43 98 99 c55 55 101 94 103 87 2 -7 15 -42 29 -78z m-1628 -1820 l0
-1310 685 0 685 0 0 -340 0 -340 -1055 0 -1055 0 0 1650 0 1650 370 0 370 0 0
-1310z m2068 229 l2 -816 -256 -6 c-141 -4 -260 -4 -265 -1 -5 3 -9 261 -9
575 l0 569 -300 0 -300 0 0 243 c0 134 3 247 7 250 3 4 257 6 562 5 l556 -3 3
-816z m-1324 48 c38 -67 186 -323 328 -569 142 -246 258 -451 258 -455 -1 -9
-232 -143 -246 -143 -8 0 -644 1093 -659 1132 -5 12 25 33 117 87 68 39 125
70 128 70 3 0 36 -55 74 -122z m-2092 -813 l76 -115 -61 -31 c-125 -63 -272
-96 -357 -81 -44 8 -45 9 -107 118 -35 61 -63 112 -63 115 0 3 44 11 97 18 60
8 140 27 208 51 60 21 115 39 120 39 6 1 45 -50 87 -114z m3893 -710 c53 -42
174 -106 255 -135 36 -12 69 -26 73 -30 8 -6 -20 -268 -29 -278 -9 -9 -160 40
-230 74 -70 34 -156 100 -174 136 -14 25 38 281 54 272 6 -4 29 -21 51 -39z
m117 -781 c54 -54 98 -100 98 -103 0 -4 -28 -27 -62 -52 -115 -84 -243 -138
-330 -138 -34 0 -43 7 -123 100 -84 97 -94 120 -55 120 40 0 194 64 278 115
48 30 89 54 92 54 2 1 49 -43 102 -96z"/>
<path d="M1449 3998 c-1 -2 -2 -668 -3 -1480 l-2 -1478 878 0 878 0 0 165 0
165 -682 2 -683 3 -3 1313 -2 1312 -190 0 c-105 0 -191 -1 -191 -2z"/>
<path d="M3134 3699 c3 -17 6 -49 6 -70 l0 -39 295 0 295 0 0 -570 0 -570 85
0 85 0 0 640 0 640 -386 0 -386 0 6 -31z"/>
</g>
</svg>
