<?xml version="1.0" encoding="UTF-8" standalone="no"?>
<!DOCTYPE svg PUBLIC "-//W3C//DTD SVG 1.1//EN"
 "http://www.w3.org/Graphics/SVG/1.1/DTD/svg11.dtd">
<!-- Generated by graphviz version 2.40.1 (20161225.0304)
 -->
<!-- Title: dependencies Pages: 1 -->
<svg width="504pt" height="211pt"
 viewBox="0.00 0.00 504.00 211.00" xmlns="http://www.w3.org/2000/svg" xmlns:xlink="http://www.w3.org/1999/xlink">
<g id="graph0" class="graph" transform="scale(1 1) rotate(0) translate(4 207)">
<title>dependencies</title>
<polygon fill="#ffffff" stroke="transparent" points="-4,4 -4,-207 500,-207 500,4 -4,4"/>
<text text-anchor="start" x="227.0091" y="-42.4" font-family="sans-serif" font-weight="bold" font-size="14.00" fill="#000000">Legend</text>
<polygon fill="#ffffb3" stroke="transparent" points="14,-10 14,-30 34,-30 34,-10 14,-10"/>
<text text-anchor="start" x="37.629" y="-15.4" font-family="sans-serif" font-size="14.00" fill="#000000"> &#160;Declarations</text>
<polygon fill="#8dd3c7" stroke="transparent" points="127,-10 127,-30 147,-30 147,-10 127,-10"/>
<text text-anchor="start" x="150.7251" y="-15.4" font-family="sans-serif" font-size="14.00" fill="#000000"> &#160;Module</text>
<polygon fill="#80b1d3" stroke="transparent" points="213,-10 213,-30 233,-30 233,-10 213,-10"/>
<text text-anchor="start" x="236.7812" y="-15.4" font-family="sans-serif" font-size="14.00" fill="#000000"> &#160;Bootstrap</text>
<polygon fill="#fdb462" stroke="transparent" points="310,-10 310,-30 330,-30 330,-10 310,-10"/>
<text text-anchor="start" x="333.6732" y="-15.4" font-family="sans-serif" font-size="14.00" fill="#000000"> &#160;Providers</text>
<polygon fill="#fb8072" stroke="transparent" points="406,-10 406,-30 426,-30 426,-10 406,-10"/>
<text text-anchor="start" x="429.7258" y="-15.4" font-family="sans-serif" font-size="14.00" fill="#000000"> &#160;Exports</text>
<g id="clust1" class="cluster">
<title>cluster_EditEventModule</title>
<polygon fill="none" stroke="#000000" stroke-dasharray="1,5" points="12.5,-70 12.5,-195 483.5,-195 483.5,-70 12.5,-70"/>
</g>
<g id="clust2" class="cluster">
<title>cluster_EditEventModule_declarations</title>
<polygon fill="none" stroke="#000000" points="321.5,-78 321.5,-130 475.5,-130 475.5,-78 321.5,-78"/>
</g>
<g id="clust4" class="cluster">
<title>cluster_EditEventModule_imports</title>
<polygon fill="none" stroke="#000000" points="20.5,-78 20.5,-130 313.5,-130 313.5,-78 20.5,-78"/>
</g>
<!-- EditEventComponent -->
<g id="node1" class="node">
<title>EditEventComponent</title>
<polygon fill="#ffffb3" stroke="#000000" points="467.3244,-122 329.6756,-122 329.6756,-86 467.3244,-86 467.3244,-122"/>
<text text-anchor="middle" x="398.5" y="-99.8" font-family="Times,serif" font-size="14.00" fill="#000000">EditEventComponent</text>
</g>
<!-- EditEventModule -->
<g id="node2" class="node">
<title>EditEventModule</title>
<polygon fill="#8dd3c7" stroke="#000000" points="283.0423,-187 280.0423,-191 259.0423,-191 256.0423,-187 167.9577,-187 167.9577,-151 283.0423,-151 283.0423,-187"/>
<text text-anchor="middle" x="225.5" y="-164.8" font-family="Times,serif" font-size="14.00" fill="#000000">EditEventModule</text>
</g>
<!-- EditEventComponent&#45;&gt;EditEventModule -->
<g id="edge1" class="edge">
<title>EditEventComponent&#45;&gt;EditEventModule</title>
<path fill="none" stroke="#000000" d="M398.5,-122.1061C398.5,-141.3391 398.5,-169 398.5,-169 398.5,-169 293.1065,-169 293.1065,-169"/>
<polygon fill="#000000" stroke="#000000" points="293.1065,-165.5001 283.1065,-169 293.1065,-172.5001 293.1065,-165.5001"/>
</g>
<!-- EditEventRoutingModule -->
<g id="node3" class="node">
<title>EditEventRoutingModule</title>
<polygon fill="#8dd3c7" stroke="#000000" points="305.6596,-122 302.6596,-126 281.6596,-126 278.6596,-122 145.3404,-122 145.3404,-86 305.6596,-86 305.6596,-122"/>
<text text-anchor="middle" x="225.5" y="-99.8" font-family="Times,serif" font-size="14.00" fill="#000000">EditEventRoutingModule</text>
</g>
<!-- EditEventRoutingModule&#45;&gt;EditEventModule -->
<g id="edge2" class="edge">
<title>EditEventRoutingModule&#45;&gt;EditEventModule</title>
<path fill="none" stroke="#000000" d="M225.5,-122.1061C225.5,-122.1061 225.5,-140.991 225.5,-140.991"/>
<polygon fill="#000000" stroke="#000000" points="222.0001,-140.9909 225.5,-150.991 229.0001,-140.991 222.0001,-140.9909"/>
</g>
<!-- SharedModule -->
<g id="node4" class="node">
<title>SharedModule</title>
<polygon fill="#8dd3c7" stroke="#000000" points="126.9231,-122 123.9231,-126 102.9231,-126 99.9231,-122 28.0769,-122 28.0769,-86 126.9231,-86 126.9231,-122"/>
<text text-anchor="middle" x="77.5" y="-99.8" font-family="Times,serif" font-size="14.00" fill="#000000">SharedModule</text>
</g>
<!-- SharedModule&#45;&gt;EditEventModule -->
<g id="edge3" class="edge">
<title>SharedModule&#45;&gt;EditEventModule</title>
<path fill="none" stroke="#000000" d="M77.5,-122.1061C77.5,-141.3391 77.5,-169 77.5,-169 77.5,-169 157.8555,-169 157.8555,-169"/>
<polygon fill="#000000" stroke="#000000" points="157.8556,-172.5001 167.8555,-169 157.8555,-165.5001 157.8556,-172.5001"/>
</g>
</g>
</svg>
