<?xml version="1.0" encoding="UTF-8" standalone="no"?>
<!DOCTYPE svg PUBLIC "-//W3C//DTD SVG 1.1//EN"
 "http://www.w3.org/Graphics/SVG/1.1/DTD/svg11.dtd">
<!-- Generated by graphviz version 2.40.1 (20161225.0304)
 -->
<!-- Title: dependencies Pages: 1 -->
<svg width="516pt" height="211pt"
 viewBox="0.00 0.00 516.00 211.00" xmlns="http://www.w3.org/2000/svg" xmlns:xlink="http://www.w3.org/1999/xlink">
<g id="graph0" class="graph" transform="scale(1 1) rotate(0) translate(4 207)">
<title>dependencies</title>
<polygon fill="#ffffff" stroke="transparent" points="-4,4 -4,-207 512,-207 512,4 -4,4"/>
<text text-anchor="start" x="233.0091" y="-42.4" font-family="sans-serif" font-weight="bold" font-size="14.00" fill="#000000">Legend</text>
<polygon fill="#ffffb3" stroke="transparent" points="20,-10 20,-30 40,-30 40,-10 20,-10"/>
<text text-anchor="start" x="43.629" y="-15.4" font-family="sans-serif" font-size="14.00" fill="#000000"> &#160;Declarations</text>
<polygon fill="#8dd3c7" stroke="transparent" points="133,-10 133,-30 153,-30 153,-10 133,-10"/>
<text text-anchor="start" x="156.7251" y="-15.4" font-family="sans-serif" font-size="14.00" fill="#000000"> &#160;Module</text>
<polygon fill="#80b1d3" stroke="transparent" points="219,-10 219,-30 239,-30 239,-10 219,-10"/>
<text text-anchor="start" x="242.7812" y="-15.4" font-family="sans-serif" font-size="14.00" fill="#000000"> &#160;Bootstrap</text>
<polygon fill="#fdb462" stroke="transparent" points="316,-10 316,-30 336,-30 336,-10 316,-10"/>
<text text-anchor="start" x="339.6732" y="-15.4" font-family="sans-serif" font-size="14.00" fill="#000000"> &#160;Providers</text>
<polygon fill="#fb8072" stroke="transparent" points="412,-10 412,-30 432,-30 432,-10 412,-10"/>
<text text-anchor="start" x="435.7258" y="-15.4" font-family="sans-serif" font-size="14.00" fill="#000000"> &#160;Exports</text>
<g id="clust1" class="cluster">
<title>cluster_EventDetailModule</title>
<polygon fill="none" stroke="#000000" stroke-dasharray="1,5" points="8,-70 8,-195 500,-195 500,-70 8,-70"/>
</g>
<g id="clust2" class="cluster">
<title>cluster_EventDetailModule_declarations</title>
<polygon fill="none" stroke="#000000" points="328,-78 328,-130 492,-130 492,-78 328,-78"/>
</g>
<g id="clust4" class="cluster">
<title>cluster_EventDetailModule_imports</title>
<polygon fill="none" stroke="#000000" points="16,-78 16,-130 320,-130 320,-78 16,-78"/>
</g>
<!-- EventDetailComponent -->
<g id="node1" class="node">
<title>EventDetailComponent</title>
<polygon fill="#ffffb3" stroke="#000000" points="484.1979,-122 335.8021,-122 335.8021,-86 484.1979,-86 484.1979,-122"/>
<text text-anchor="middle" x="410" y="-99.8" font-family="Times,serif" font-size="14.00" fill="#000000">EventDetailComponent</text>
</g>
<!-- EventDetailModule -->
<g id="node2" class="node">
<title>EventDetailModule</title>
<polygon fill="#8dd3c7" stroke="#000000" points="289.4159,-187 286.4159,-191 265.4159,-191 262.4159,-187 162.5841,-187 162.5841,-151 289.4159,-151 289.4159,-187"/>
<text text-anchor="middle" x="226" y="-164.8" font-family="Times,serif" font-size="14.00" fill="#000000">EventDetailModule</text>
</g>
<!-- EventDetailComponent&#45;&gt;EventDetailModule -->
<g id="edge1" class="edge">
<title>EventDetailComponent&#45;&gt;EventDetailModule</title>
<path fill="none" stroke="#000000" d="M410,-122.1061C410,-141.3391 410,-169 410,-169 410,-169 299.3224,-169 299.3224,-169"/>
<polygon fill="#000000" stroke="#000000" points="299.3224,-165.5001 289.3224,-169 299.3223,-172.5001 299.3224,-165.5001"/>
</g>
<!-- EventDetailRoutingModule -->
<g id="node3" class="node">
<title>EventDetailRoutingModule</title>
<polygon fill="#8dd3c7" stroke="#000000" points="311.5336,-122 308.5336,-126 287.5336,-126 284.5336,-122 140.4664,-122 140.4664,-86 311.5336,-86 311.5336,-122"/>
<text text-anchor="middle" x="226" y="-99.8" font-family="Times,serif" font-size="14.00" fill="#000000">EventDetailRoutingModule</text>
</g>
<!-- EventDetailRoutingModule&#45;&gt;EventDetailModule -->
<g id="edge2" class="edge">
<title>EventDetailRoutingModule&#45;&gt;EventDetailModule</title>
<path fill="none" stroke="#000000" d="M226,-122.1061C226,-122.1061 226,-140.991 226,-140.991"/>
<polygon fill="#000000" stroke="#000000" points="222.5001,-140.9909 226,-150.991 229.5001,-140.991 222.5001,-140.9909"/>
</g>
<!-- SharedModule -->
<g id="node4" class="node">
<title>SharedModule</title>
<polygon fill="#8dd3c7" stroke="#000000" points="122.4231,-122 119.4231,-126 98.4231,-126 95.4231,-122 23.5769,-122 23.5769,-86 122.4231,-86 122.4231,-122"/>
<text text-anchor="middle" x="73" y="-99.8" font-family="Times,serif" font-size="14.00" fill="#000000">SharedModule</text>
</g>
<!-- SharedModule&#45;&gt;EventDetailModule -->
<g id="edge3" class="edge">
<title>SharedModule&#45;&gt;EventDetailModule</title>
<path fill="none" stroke="#000000" d="M73,-122.1061C73,-141.3391 73,-169 73,-169 73,-169 152.4434,-169 152.4434,-169"/>
<polygon fill="#000000" stroke="#000000" points="152.4435,-172.5001 162.4434,-169 152.4434,-165.5001 152.4435,-172.5001"/>
</g>
</g>
</svg>
