<?xml version="1.0" encoding="UTF-8" standalone="no"?>
<!DOCTYPE svg PUBLIC "-//W3C//DTD SVG 1.1//EN"
 "http://www.w3.org/Graphics/SVG/1.1/DTD/svg11.dtd">
<!-- Generated by graphviz version 2.40.1 (20161225.0304)
 -->
<!-- Title: dependencies Pages: 1 -->
<svg width="867pt" height="284pt"
 viewBox="0.00 0.00 867.00 284.00" xmlns="http://www.w3.org/2000/svg" xmlns:xlink="http://www.w3.org/1999/xlink">
<g id="graph0" class="graph" transform="scale(1 1) rotate(0) translate(4 280)">
<title>dependencies</title>
<polygon fill="#ffffff" stroke="transparent" points="-4,4 -4,-280 863,-280 863,4 -4,4"/>
<text text-anchor="start" x="408.5091" y="-42.4" font-family="sans-serif" font-weight="bold" font-size="14.00" fill="#000000">Legend</text>
<polygon fill="#ffffb3" stroke="transparent" points="195.5,-10 195.5,-30 215.5,-30 215.5,-10 195.5,-10"/>
<text text-anchor="start" x="219.129" y="-15.4" font-family="sans-serif" font-size="14.00" fill="#000000"> &#160;Declarations</text>
<polygon fill="#8dd3c7" stroke="transparent" points="308.5,-10 308.5,-30 328.5,-30 328.5,-10 308.5,-10"/>
<text text-anchor="start" x="332.2251" y="-15.4" font-family="sans-serif" font-size="14.00" fill="#000000"> &#160;Module</text>
<polygon fill="#80b1d3" stroke="transparent" points="394.5,-10 394.5,-30 414.5,-30 414.5,-10 394.5,-10"/>
<text text-anchor="start" x="418.2812" y="-15.4" font-family="sans-serif" font-size="14.00" fill="#000000"> &#160;Bootstrap</text>
<polygon fill="#fdb462" stroke="transparent" points="491.5,-10 491.5,-30 511.5,-30 511.5,-10 491.5,-10"/>
<text text-anchor="start" x="515.1732" y="-15.4" font-family="sans-serif" font-size="14.00" fill="#000000"> &#160;Providers</text>
<polygon fill="#fb8072" stroke="transparent" points="587.5,-10 587.5,-30 607.5,-30 607.5,-10 587.5,-10"/>
<text text-anchor="start" x="611.2258" y="-15.4" font-family="sans-serif" font-size="14.00" fill="#000000"> &#160;Exports</text>
<g id="clust1" class="cluster">
<title>cluster_SharedModule</title>
<polygon fill="none" stroke="#000000" stroke-dasharray="1,5" points="8,-70 8,-268 851,-268 851,-70 8,-70"/>
</g>
<g id="clust2" class="cluster">
<title>cluster_SharedModule_declarations</title>
<polygon fill="none" stroke="#000000" points="189,-78 189,-130 834,-130 834,-78 189,-78"/>
</g>
<g id="clust7" class="cluster">
<title>cluster_SharedModule_imports</title>
<polygon fill="none" stroke="#000000" points="19,-78 19,-130 181,-130 181,-78 19,-78"/>
</g>
<g id="clust8" class="cluster">
<title>cluster_SharedModule_exports</title>
<polygon fill="none" stroke="#000000" points="16,-208 16,-260 843,-260 843,-208 16,-208"/>
</g>
<!-- CommentListComponent -->
<g id="node1" class="node">
<title>CommentListComponent</title>
<polygon fill="#ffffb3" stroke="#000000" points="826.3342,-122 667.6658,-122 667.6658,-86 826.3342,-86 826.3342,-122"/>
<text text-anchor="middle" x="747" y="-99.8" font-family="Times,serif" font-size="14.00" fill="#000000">CommentListComponent</text>
</g>
<!-- SharedModule -->
<g id="node5" class="node">
<title>SharedModule</title>
<polygon fill="#8dd3c7" stroke="#000000" points="476.4231,-187 473.4231,-191 452.4231,-191 449.4231,-187 377.5769,-187 377.5769,-151 476.4231,-151 476.4231,-187"/>
<text text-anchor="middle" x="427" y="-164.8" font-family="Times,serif" font-size="14.00" fill="#000000">SharedModule</text>
</g>
<!-- CommentListComponent&#45;&gt;SharedModule -->
<g id="edge1" class="edge">
<title>CommentListComponent&#45;&gt;SharedModule</title>
<path fill="none" stroke="#000000" d="M775.139,-122.2667C775.139,-140.5552 775.139,-166 775.139,-166 775.139,-166 486.5101,-166 486.5101,-166"/>
<polygon fill="#000000" stroke="#000000" points="486.5101,-162.5001 476.5101,-166 486.5101,-169.5001 486.5101,-162.5001"/>
</g>
<!-- EventCardComponent -->
<g id="node2" class="node">
<title>EventCardComponent</title>
<polygon fill="#ffffb3" stroke="#000000" points="649.7021,-122 508.2979,-122 508.2979,-86 649.7021,-86 649.7021,-122"/>
<text text-anchor="middle" x="579" y="-99.8" font-family="Times,serif" font-size="14.00" fill="#000000">EventCardComponent</text>
</g>
<!-- EventCardComponent&#45;&gt;SharedModule -->
<g id="edge2" class="edge">
<title>EventCardComponent&#45;&gt;SharedModule</title>
<path fill="none" stroke="#000000" d="M603.2837,-122.0091C603.2837,-138.0494 603.2837,-159 603.2837,-159 603.2837,-159 486.574,-159 486.574,-159"/>
<polygon fill="#000000" stroke="#000000" points="486.574,-155.5001 476.574,-159 486.5739,-162.5001 486.574,-155.5001"/>
</g>
<!-- PostListComponent -->
<g id="node3" class="node">
<title>PostListComponent</title>
<polygon fill="#ffffb3" stroke="#000000" points="490.7288,-122 363.2712,-122 363.2712,-86 490.7288,-86 490.7288,-122"/>
<text text-anchor="middle" x="427" y="-99.8" font-family="Times,serif" font-size="14.00" fill="#000000">PostListComponent</text>
</g>
<!-- PostListComponent&#45;&gt;SharedModule -->
<g id="edge3" class="edge">
<title>PostListComponent&#45;&gt;SharedModule</title>
<path fill="none" stroke="#000000" d="M427,-122.1061C427,-122.1061 427,-140.991 427,-140.991"/>
<polygon fill="#000000" stroke="#000000" points="423.5001,-140.9909 427,-150.991 430.5001,-140.991 423.5001,-140.9909"/>
</g>
<!-- TopAppBarComponent -->
<g id="node4" class="node">
<title>TopAppBarComponent</title>
<polygon fill="#ffffb3" stroke="#000000" points="345.2035,-122 196.7965,-122 196.7965,-86 345.2035,-86 345.2035,-122"/>
<text text-anchor="middle" x="271" y="-99.8" font-family="Times,serif" font-size="14.00" fill="#000000">TopAppBarComponent</text>
</g>
<!-- TopAppBarComponent&#45;&gt;SharedModule -->
<g id="edge4" class="edge">
<title>TopAppBarComponent&#45;&gt;SharedModule</title>
<path fill="none" stroke="#000000" d="M294.7471,-122.0091C294.7471,-138.0494 294.7471,-159 294.7471,-159 294.7471,-159 367.7539,-159 367.7539,-159"/>
<polygon fill="#000000" stroke="#000000" points="367.7539,-162.5001 377.7539,-159 367.7539,-155.5001 367.7539,-162.5001"/>
</g>
<!-- CommentListComponent  -->
<g id="node7" class="node">
<title>CommentListComponent </title>
<polygon fill="#fb8072" stroke="#000000" points="834.8339,-252 673.1661,-252 673.1661,-216 834.8339,-216 834.8339,-252"/>
<text text-anchor="middle" x="754" y="-229.8" font-family="Times,serif" font-size="14.00" fill="#000000">CommentListComponent </text>
</g>
<!-- SharedModule&#45;&gt;CommentListComponent  -->
<g id="edge6" class="edge">
<title>SharedModule&#45;&gt;CommentListComponent </title>
<path fill="none" stroke="#000000" stroke-dasharray="5,2" d="M476.3954,-173C560.8801,-173 724.111,-173 724.111,-173 724.111,-173 724.111,-205.698 724.111,-205.698"/>
<polygon fill="#000000" stroke="#000000" points="720.6111,-205.698 724.111,-215.698 727.6111,-205.698 720.6111,-205.698"/>
</g>
<!-- EventCardComponent  -->
<g id="node8" class="node">
<title>EventCardComponent </title>
<polygon fill="#fb8072" stroke="#000000" points="655.2023,-252 510.7977,-252 510.7977,-216 655.2023,-216 655.2023,-252"/>
<text text-anchor="middle" x="583" y="-229.8" font-family="Times,serif" font-size="14.00" fill="#000000">EventCardComponent </text>
</g>
<!-- SharedModule&#45;&gt;EventCardComponent  -->
<g id="edge7" class="edge">
<title>SharedModule&#45;&gt;EventCardComponent </title>
<path fill="none" stroke="#000000" stroke-dasharray="5,2" d="M476.5055,-180C513.2339,-180 556.9663,-180 556.9663,-180 556.9663,-180 556.9663,-205.7181 556.9663,-205.7181"/>
<polygon fill="#000000" stroke="#000000" points="553.4664,-205.718 556.9663,-215.7181 560.4664,-205.7181 553.4664,-205.718"/>
</g>
<!-- PostListComponent  -->
<g id="node9" class="node">
<title>PostListComponent </title>
<polygon fill="#fb8072" stroke="#000000" points="492.2289,-252 361.7711,-252 361.7711,-216 492.2289,-216 492.2289,-252"/>
<text text-anchor="middle" x="427" y="-229.8" font-family="Times,serif" font-size="14.00" fill="#000000">PostListComponent </text>
</g>
<!-- SharedModule&#45;&gt;PostListComponent  -->
<g id="edge8" class="edge">
<title>SharedModule&#45;&gt;PostListComponent </title>
<path fill="none" stroke="#000000" stroke-dasharray="5,2" d="M427,-187.1061C427,-187.1061 427,-205.991 427,-205.991"/>
<polygon fill="#000000" stroke="#000000" points="423.5001,-205.9909 427,-215.991 430.5001,-205.991 423.5001,-205.9909"/>
</g>
<!-- SharedMaterialModule  -->
<g id="node10" class="node">
<title>SharedMaterialModule </title>
<polygon fill="#fb8072" stroke="#000000" points="343.8434,-252 194.1566,-252 194.1566,-216 343.8434,-216 343.8434,-252"/>
<text text-anchor="middle" x="269" y="-229.8" font-family="Times,serif" font-size="14.00" fill="#000000">SharedMaterialModule </text>
</g>
<!-- SharedModule&#45;&gt;SharedMaterialModule  -->
<g id="edge9" class="edge">
<title>SharedModule&#45;&gt;SharedMaterialModule </title>
<path fill="none" stroke="#000000" stroke-dasharray="5,2" d="M377.4925,-180C323.8493,-180 245.8227,-180 245.8227,-180 245.8227,-180 245.8227,-205.7181 245.8227,-205.7181"/>
<polygon fill="#000000" stroke="#000000" points="242.3228,-205.718 245.8227,-215.7181 249.3228,-205.7181 242.3228,-205.718"/>
</g>
<!-- TopAppBarComponent  -->
<g id="node11" class="node">
<title>TopAppBarComponent </title>
<polygon fill="#fb8072" stroke="#000000" points="175.7037,-252 24.2963,-252 24.2963,-216 175.7037,-216 175.7037,-252"/>
<text text-anchor="middle" x="100" y="-229.8" font-family="Times,serif" font-size="14.00" fill="#000000">TopAppBarComponent </text>
</g>
<!-- SharedModule&#45;&gt;TopAppBarComponent  -->
<g id="edge10" class="edge">
<title>SharedModule&#45;&gt;TopAppBarComponent </title>
<path fill="none" stroke="#000000" stroke-dasharray="5,2" d="M377.6935,-173C291.9219,-173 124.3072,-173 124.3072,-173 124.3072,-173 124.3072,-205.698 124.3072,-205.698"/>
<polygon fill="#000000" stroke="#000000" points="120.8073,-205.698 124.3072,-215.698 127.8073,-205.698 120.8073,-205.698"/>
</g>
<!-- SharedMaterialModule -->
<g id="node6" class="node">
<title>SharedMaterialModule</title>
<polygon fill="#8dd3c7" stroke="#000000" points="172.8431,-122 169.8431,-126 148.8431,-126 145.8431,-122 27.1569,-122 27.1569,-86 172.8431,-86 172.8431,-122"/>
<text text-anchor="middle" x="100" y="-99.8" font-family="Times,serif" font-size="14.00" fill="#000000">SharedMaterialModule</text>
</g>
<!-- SharedMaterialModule&#45;&gt;SharedModule -->
<g id="edge5" class="edge">
<title>SharedMaterialModule&#45;&gt;SharedModule</title>
<path fill="none" stroke="#000000" d="M75.6928,-122.2667C75.6928,-140.5552 75.6928,-166 75.6928,-166 75.6928,-166 367.7823,-166 367.7823,-166"/>
<polygon fill="#000000" stroke="#000000" points="367.7824,-169.5001 377.7823,-166 367.7823,-162.5001 367.7824,-169.5001"/>
</g>
</g>
</svg>
