<?xml version="1.0" encoding="UTF-8" standalone="no"?>
<!DOCTYPE svg PUBLIC "-//W3C//DTD SVG 1.1//EN"
 "http://www.w3.org/Graphics/SVG/1.1/DTD/svg11.dtd">
<!-- Generated by graphviz version 2.40.1 (20161225.0304)
 -->
<!-- Title: dependencies Pages: 1 -->
<svg width="551pt" height="211pt"
 viewBox="0.00 0.00 551.00 211.00" xmlns="http://www.w3.org/2000/svg" xmlns:xlink="http://www.w3.org/1999/xlink">
<g id="graph0" class="graph" transform="scale(1 1) rotate(0) translate(4 207)">
<title>dependencies</title>
<polygon fill="#ffffff" stroke="transparent" points="-4,4 -4,-207 547,-207 547,4 -4,4"/>
<text text-anchor="start" x="250.5091" y="-42.4" font-family="sans-serif" font-weight="bold" font-size="14.00" fill="#000000">Legend</text>
<polygon fill="#ffffb3" stroke="transparent" points="37.5,-10 37.5,-30 57.5,-30 57.5,-10 37.5,-10"/>
<text text-anchor="start" x="61.129" y="-15.4" font-family="sans-serif" font-size="14.00" fill="#000000"> &#160;Declarations</text>
<polygon fill="#8dd3c7" stroke="transparent" points="150.5,-10 150.5,-30 170.5,-30 170.5,-10 150.5,-10"/>
<text text-anchor="start" x="174.2251" y="-15.4" font-family="sans-serif" font-size="14.00" fill="#000000"> &#160;Module</text>
<polygon fill="#80b1d3" stroke="transparent" points="236.5,-10 236.5,-30 256.5,-30 256.5,-10 236.5,-10"/>
<text text-anchor="start" x="260.2812" y="-15.4" font-family="sans-serif" font-size="14.00" fill="#000000"> &#160;Bootstrap</text>
<polygon fill="#fdb462" stroke="transparent" points="333.5,-10 333.5,-30 353.5,-30 353.5,-10 333.5,-10"/>
<text text-anchor="start" x="357.1732" y="-15.4" font-family="sans-serif" font-size="14.00" fill="#000000"> &#160;Providers</text>
<polygon fill="#fb8072" stroke="transparent" points="429.5,-10 429.5,-30 449.5,-30 449.5,-10 429.5,-10"/>
<text text-anchor="start" x="453.2258" y="-15.4" font-family="sans-serif" font-size="14.00" fill="#000000"> &#160;Exports</text>
<g id="clust1" class="cluster">
<title>cluster_PageNotFoundModule</title>
<polygon fill="none" stroke="#000000" stroke-dasharray="1,5" points="8,-70 8,-195 535,-195 535,-70 8,-70"/>
</g>
<g id="clust2" class="cluster">
<title>cluster_PageNotFoundModule_declarations</title>
<polygon fill="none" stroke="#000000" points="345,-78 345,-130 527,-130 527,-78 345,-78"/>
</g>
<g id="clust4" class="cluster">
<title>cluster_PageNotFoundModule_imports</title>
<polygon fill="none" stroke="#000000" points="16,-78 16,-130 337,-130 337,-78 16,-78"/>
</g>
<!-- PageNotFoundComponent -->
<g id="node1" class="node">
<title>PageNotFoundComponent</title>
<polygon fill="#ffffb3" stroke="#000000" points="518.8243,-122 353.1757,-122 353.1757,-86 518.8243,-86 518.8243,-122"/>
<text text-anchor="middle" x="436" y="-99.8" font-family="Times,serif" font-size="14.00" fill="#000000">PageNotFoundComponent</text>
</g>
<!-- PageNotFoundModule -->
<g id="node2" class="node">
<title>PageNotFoundModule</title>
<polygon fill="#8dd3c7" stroke="#000000" points="306.5421,-187 303.5421,-191 282.5421,-191 279.5421,-187 163.4579,-187 163.4579,-151 306.5421,-151 306.5421,-187"/>
<text text-anchor="middle" x="235" y="-164.8" font-family="Times,serif" font-size="14.00" fill="#000000">PageNotFoundModule</text>
</g>
<!-- PageNotFoundComponent&#45;&gt;PageNotFoundModule -->
<g id="edge1" class="edge">
<title>PageNotFoundComponent&#45;&gt;PageNotFoundModule</title>
<path fill="none" stroke="#000000" d="M436,-122.1061C436,-141.3391 436,-169 436,-169 436,-169 316.7143,-169 316.7143,-169"/>
<polygon fill="#000000" stroke="#000000" points="316.7144,-165.5001 306.7143,-169 316.7143,-172.5001 316.7144,-165.5001"/>
</g>
<!-- PageNotFoundRoutingModule -->
<g id="node3" class="node">
<title>PageNotFoundRoutingModule</title>
<polygon fill="#8dd3c7" stroke="#000000" points="329.1595,-122 326.1595,-126 305.1595,-126 302.1595,-122 140.8405,-122 140.8405,-86 329.1595,-86 329.1595,-122"/>
<text text-anchor="middle" x="235" y="-99.8" font-family="Times,serif" font-size="14.00" fill="#000000">PageNotFoundRoutingModule</text>
</g>
<!-- PageNotFoundRoutingModule&#45;&gt;PageNotFoundModule -->
<g id="edge2" class="edge">
<title>PageNotFoundRoutingModule&#45;&gt;PageNotFoundModule</title>
<path fill="none" stroke="#000000" d="M235,-122.1061C235,-122.1061 235,-140.991 235,-140.991"/>
<polygon fill="#000000" stroke="#000000" points="231.5001,-140.9909 235,-150.991 238.5001,-140.991 231.5001,-140.9909"/>
</g>
<!-- SharedModule -->
<g id="node4" class="node">
<title>SharedModule</title>
<polygon fill="#8dd3c7" stroke="#000000" points="122.4231,-122 119.4231,-126 98.4231,-126 95.4231,-122 23.5769,-122 23.5769,-86 122.4231,-86 122.4231,-122"/>
<text text-anchor="middle" x="73" y="-99.8" font-family="Times,serif" font-size="14.00" fill="#000000">SharedModule</text>
</g>
<!-- SharedModule&#45;&gt;PageNotFoundModule -->
<g id="edge3" class="edge">
<title>SharedModule&#45;&gt;PageNotFoundModule</title>
<path fill="none" stroke="#000000" d="M73,-122.1061C73,-141.3391 73,-169 73,-169 73,-169 153.001,-169 153.001,-169"/>
<polygon fill="#000000" stroke="#000000" points="153.0011,-172.5001 163.001,-169 153.001,-165.5001 153.0011,-172.5001"/>
</g>
</g>
</svg>
