<?xml version="1.0" encoding="UTF-8" standalone="no"?>
<!DOCTYPE svg PUBLIC "-//W3C//DTD SVG 1.1//EN"
 "http://www.w3.org/Graphics/SVG/1.1/DTD/svg11.dtd">
<!-- Generated by graphviz version 2.40.1 (20161225.0304)
 -->
<!-- Title: dependencies Pages: 1 -->
<svg width="504pt" height="211pt"
 viewBox="0.00 0.00 504.00 211.00" xmlns="http://www.w3.org/2000/svg" xmlns:xlink="http://www.w3.org/1999/xlink">
<g id="graph0" class="graph" transform="scale(1 1) rotate(0) translate(4 207)">
<title>dependencies</title>
<polygon fill="#ffffff" stroke="transparent" points="-4,4 -4,-207 500,-207 500,4 -4,4"/>
<text text-anchor="start" x="227.0091" y="-42.4" font-family="sans-serif" font-weight="bold" font-size="14.00" fill="#000000">Legend</text>
<polygon fill="#ffffb3" stroke="transparent" points="14,-10 14,-30 34,-30 34,-10 14,-10"/>
<text text-anchor="start" x="37.629" y="-15.4" font-family="sans-serif" font-size="14.00" fill="#000000"> &#160;Declarations</text>
<polygon fill="#8dd3c7" stroke="transparent" points="127,-10 127,-30 147,-30 147,-10 127,-10"/>
<text text-anchor="start" x="150.7251" y="-15.4" font-family="sans-serif" font-size="14.00" fill="#000000"> &#160;Module</text>
<polygon fill="#80b1d3" stroke="transparent" points="213,-10 213,-30 233,-30 233,-10 213,-10"/>
<text text-anchor="start" x="236.7812" y="-15.4" font-family="sans-serif" font-size="14.00" fill="#000000"> &#160;Bootstrap</text>
<polygon fill="#fdb462" stroke="transparent" points="310,-10 310,-30 330,-30 330,-10 310,-10"/>
<text text-anchor="start" x="333.6732" y="-15.4" font-family="sans-serif" font-size="14.00" fill="#000000"> &#160;Providers</text>
<polygon fill="#fb8072" stroke="transparent" points="406,-10 406,-30 426,-30 426,-10 406,-10"/>
<text text-anchor="start" x="429.7258" y="-15.4" font-family="sans-serif" font-size="14.00" fill="#000000"> &#160;Exports</text>
<g id="clust1" class="cluster">
<title>cluster_SearchModule</title>
<polygon fill="none" stroke="#000000" stroke-dasharray="1,5" points="30.5,-70 30.5,-195 465.5,-195 465.5,-70 30.5,-70"/>
</g>
<g id="clust2" class="cluster">
<title>cluster_SearchModule_declarations</title>
<polygon fill="none" stroke="#000000" points="321.5,-78 321.5,-130 457.5,-130 457.5,-78 321.5,-78"/>
</g>
<g id="clust4" class="cluster">
<title>cluster_SearchModule_imports</title>
<polygon fill="none" stroke="#000000" points="38.5,-78 38.5,-130 313.5,-130 313.5,-78 38.5,-78"/>
</g>
<!-- SearchComponent -->
<g id="node1" class="node">
<title>SearchComponent</title>
<polygon fill="#ffffb3" stroke="#000000" points="449.4201,-122 329.5799,-122 329.5799,-86 449.4201,-86 449.4201,-122"/>
<text text-anchor="middle" x="389.5" y="-99.8" font-family="Times,serif" font-size="14.00" fill="#000000">SearchComponent</text>
</g>
<!-- SearchModule -->
<g id="node2" class="node">
<title>SearchModule</title>
<polygon fill="#8dd3c7" stroke="#000000" points="283.1375,-187 280.1375,-191 259.1375,-191 256.1375,-187 185.8625,-187 185.8625,-151 283.1375,-151 283.1375,-187"/>
<text text-anchor="middle" x="234.5" y="-164.8" font-family="Times,serif" font-size="14.00" fill="#000000">SearchModule</text>
</g>
<!-- SearchComponent&#45;&gt;SearchModule -->
<g id="edge1" class="edge">
<title>SearchComponent&#45;&gt;SearchModule</title>
<path fill="none" stroke="#000000" d="M389.5,-122.1061C389.5,-141.3391 389.5,-169 389.5,-169 389.5,-169 293.543,-169 293.543,-169"/>
<polygon fill="#000000" stroke="#000000" points="293.543,-165.5001 283.543,-169 293.5429,-172.5001 293.543,-165.5001"/>
</g>
<!-- SearchRoutingModule -->
<g id="node3" class="node">
<title>SearchRoutingModule</title>
<polygon fill="#8dd3c7" stroke="#000000" points="305.7548,-122 302.7548,-126 281.7548,-126 278.7548,-122 163.2452,-122 163.2452,-86 305.7548,-86 305.7548,-122"/>
<text text-anchor="middle" x="234.5" y="-99.8" font-family="Times,serif" font-size="14.00" fill="#000000">SearchRoutingModule</text>
</g>
<!-- SearchRoutingModule&#45;&gt;SearchModule -->
<g id="edge2" class="edge">
<title>SearchRoutingModule&#45;&gt;SearchModule</title>
<path fill="none" stroke="#000000" d="M234.5,-122.1061C234.5,-122.1061 234.5,-140.991 234.5,-140.991"/>
<polygon fill="#000000" stroke="#000000" points="231.0001,-140.9909 234.5,-150.991 238.0001,-140.991 231.0001,-140.9909"/>
</g>
<!-- SharedModule -->
<g id="node4" class="node">
<title>SharedModule</title>
<polygon fill="#8dd3c7" stroke="#000000" points="144.9231,-122 141.9231,-126 120.9231,-126 117.9231,-122 46.0769,-122 46.0769,-86 144.9231,-86 144.9231,-122"/>
<text text-anchor="middle" x="95.5" y="-99.8" font-family="Times,serif" font-size="14.00" fill="#000000">SharedModule</text>
</g>
<!-- SharedModule&#45;&gt;SearchModule -->
<g id="edge3" class="edge">
<title>SharedModule&#45;&gt;SearchModule</title>
<path fill="none" stroke="#000000" d="M95.5,-122.1061C95.5,-141.3391 95.5,-169 95.5,-169 95.5,-169 175.4938,-169 175.4938,-169"/>
<polygon fill="#000000" stroke="#000000" points="175.4938,-172.5001 185.4938,-169 175.4938,-165.5001 175.4938,-172.5001"/>
</g>
</g>
</svg>
