<?xml version="1.0" encoding="UTF-8" standalone="no"?>
<!DOCTYPE svg PUBLIC "-//W3C//DTD SVG 1.1//EN"
 "http://www.w3.org/Graphics/SVG/1.1/DTD/svg11.dtd">
<!-- Generated by graphviz version 2.40.1 (20161225.0304)
 -->
<!-- Title: dependencies Pages: 1 -->
<svg width="504pt" height="211pt"
 viewBox="0.00 0.00 504.00 211.00" xmlns="http://www.w3.org/2000/svg" xmlns:xlink="http://www.w3.org/1999/xlink">
<g id="graph0" class="graph" transform="scale(1 1) rotate(0) translate(4 207)">
<title>dependencies</title>
<polygon fill="#ffffff" stroke="transparent" points="-4,4 -4,-207 500,-207 500,4 -4,4"/>
<text text-anchor="start" x="227.0091" y="-42.4" font-family="sans-serif" font-weight="bold" font-size="14.00" fill="#000000">Legend</text>
<polygon fill="#ffffb3" stroke="transparent" points="14,-10 14,-30 34,-30 34,-10 14,-10"/>
<text text-anchor="start" x="37.629" y="-15.4" font-family="sans-serif" font-size="14.00" fill="#000000"> &#160;Declarations</text>
<polygon fill="#8dd3c7" stroke="transparent" points="127,-10 127,-30 147,-30 147,-10 127,-10"/>
<text text-anchor="start" x="150.7251" y="-15.4" font-family="sans-serif" font-size="14.00" fill="#000000"> &#160;Module</text>
<polygon fill="#80b1d3" stroke="transparent" points="213,-10 213,-30 233,-30 233,-10 213,-10"/>
<text text-anchor="start" x="236.7812" y="-15.4" font-family="sans-serif" font-size="14.00" fill="#000000"> &#160;Bootstrap</text>
<polygon fill="#fdb462" stroke="transparent" points="310,-10 310,-30 330,-30 330,-10 310,-10"/>
<text text-anchor="start" x="333.6732" y="-15.4" font-family="sans-serif" font-size="14.00" fill="#000000"> &#160;Providers</text>
<polygon fill="#fb8072" stroke="transparent" points="406,-10 406,-30 426,-30 426,-10 406,-10"/>
<text text-anchor="start" x="429.7258" y="-15.4" font-family="sans-serif" font-size="14.00" fill="#000000"> &#160;Exports</text>
<g id="clust1" class="cluster">
<title>cluster_NotificationsModule</title>
<polygon fill="none" stroke="#000000" stroke-dasharray="1,5" points="54,-70 54,-195 442,-195 442,-70 54,-70"/>
</g>
<g id="clust2" class="cluster">
<title>cluster_NotificationsModule_declarations</title>
<polygon fill="none" stroke="#000000" points="264,-78 264,-130 434,-130 434,-78 264,-78"/>
</g>
<g id="clust4" class="cluster">
<title>cluster_NotificationsModule_imports</title>
<polygon fill="none" stroke="#000000" points="62,-78 62,-130 256,-130 256,-78 62,-78"/>
</g>
<!-- NotificationsComponent -->
<g id="node1" class="node">
<title>NotificationsComponent</title>
<polygon fill="#ffffb3" stroke="#000000" points="426.427,-122 271.573,-122 271.573,-86 426.427,-86 426.427,-122"/>
<text text-anchor="middle" x="349" y="-99.8" font-family="Times,serif" font-size="14.00" fill="#000000">NotificationsComponent</text>
</g>
<!-- NotificationsModule -->
<g id="node2" class="node">
<title>NotificationsModule</title>
<polygon fill="#8dd3c7" stroke="#000000" points="320.1443,-187 317.1443,-191 296.1443,-191 293.1443,-187 187.8557,-187 187.8557,-151 320.1443,-151 320.1443,-187"/>
<text text-anchor="middle" x="254" y="-164.8" font-family="Times,serif" font-size="14.00" fill="#000000">NotificationsModule</text>
</g>
<!-- NotificationsComponent&#45;&gt;NotificationsModule -->
<g id="edge1" class="edge">
<title>NotificationsComponent&#45;&gt;NotificationsModule</title>
<path fill="none" stroke="#000000" d="M296.0544,-122.1061C296.0544,-122.1061 296.0544,-140.991 296.0544,-140.991"/>
<polygon fill="#000000" stroke="#000000" points="292.5544,-140.9909 296.0544,-150.991 299.5544,-140.991 292.5544,-140.9909"/>
</g>
<!-- NotificationsRoutingModule -->
<g id="node3" class="node">
<title>NotificationsRoutingModule</title>
<polygon fill="#8dd3c7" stroke="#000000" points="247.7618,-122 244.7618,-126 223.7618,-126 220.7618,-122 70.2382,-122 70.2382,-86 247.7618,-86 247.7618,-122"/>
<text text-anchor="middle" x="159" y="-99.8" font-family="Times,serif" font-size="14.00" fill="#000000">NotificationsRoutingModule</text>
</g>
<!-- NotificationsRoutingModule&#45;&gt;NotificationsModule -->
<g id="edge2" class="edge">
<title>NotificationsRoutingModule&#45;&gt;NotificationsModule</title>
<path fill="none" stroke="#000000" d="M217.7795,-122.1061C217.7795,-122.1061 217.7795,-140.991 217.7795,-140.991"/>
<polygon fill="#000000" stroke="#000000" points="214.2795,-140.9909 217.7795,-150.991 221.2795,-140.991 214.2795,-140.9909"/>
</g>
</g>
</svg>
