<?xml version="1.0" encoding="UTF-8" standalone="no"?>
<!DOCTYPE svg PUBLIC "-//W3C//DTD SVG 1.1//EN"
 "http://www.w3.org/Graphics/SVG/1.1/DTD/svg11.dtd">
<!-- Generated by graphviz version 2.40.1 (20161225.0304)
 -->
<!-- Title: dependencies Pages: 1 -->
<svg width="504pt" height="211pt"
 viewBox="0.00 0.00 504.00 211.00" xmlns="http://www.w3.org/2000/svg" xmlns:xlink="http://www.w3.org/1999/xlink">
<g id="graph0" class="graph" transform="scale(1 1) rotate(0) translate(4 207)">
<title>dependencies</title>
<polygon fill="#ffffff" stroke="transparent" points="-4,4 -4,-207 500,-207 500,4 -4,4"/>
<text text-anchor="start" x="227.0091" y="-42.4" font-family="sans-serif" font-weight="bold" font-size="14.00" fill="#000000">Legend</text>
<polygon fill="#ffffb3" stroke="transparent" points="14,-10 14,-30 34,-30 34,-10 14,-10"/>
<text text-anchor="start" x="37.629" y="-15.4" font-family="sans-serif" font-size="14.00" fill="#000000"> &#160;Declarations</text>
<polygon fill="#8dd3c7" stroke="transparent" points="127,-10 127,-30 147,-30 147,-10 127,-10"/>
<text text-anchor="start" x="150.7251" y="-15.4" font-family="sans-serif" font-size="14.00" fill="#000000"> &#160;Module</text>
<polygon fill="#80b1d3" stroke="transparent" points="213,-10 213,-30 233,-30 233,-10 213,-10"/>
<text text-anchor="start" x="236.7812" y="-15.4" font-family="sans-serif" font-size="14.00" fill="#000000"> &#160;Bootstrap</text>
<polygon fill="#fdb462" stroke="transparent" points="310,-10 310,-30 330,-30 330,-10 310,-10"/>
<text text-anchor="start" x="333.6732" y="-15.4" font-family="sans-serif" font-size="14.00" fill="#000000"> &#160;Providers</text>
<polygon fill="#fb8072" stroke="transparent" points="406,-10 406,-30 426,-30 426,-10 406,-10"/>
<text text-anchor="start" x="429.7258" y="-15.4" font-family="sans-serif" font-size="14.00" fill="#000000"> &#160;Exports</text>
<g id="clust1" class="cluster">
<title>cluster_LegalsModule</title>
<polygon fill="none" stroke="#000000" stroke-dasharray="1,5" points="32,-70 32,-195 464,-195 464,-70 32,-70"/>
</g>
<g id="clust2" class="cluster">
<title>cluster_LegalsModule_declarations</title>
<polygon fill="none" stroke="#000000" points="322,-78 322,-130 456,-130 456,-78 322,-78"/>
</g>
<g id="clust4" class="cluster">
<title>cluster_LegalsModule_imports</title>
<polygon fill="none" stroke="#000000" points="40,-78 40,-130 314,-130 314,-78 40,-78"/>
</g>
<!-- LegalsComponent -->
<g id="node1" class="node">
<title>LegalsComponent</title>
<polygon fill="#ffffb3" stroke="#000000" points="448.1499,-122 329.8501,-122 329.8501,-86 448.1499,-86 448.1499,-122"/>
<text text-anchor="middle" x="389" y="-99.8" font-family="Times,serif" font-size="14.00" fill="#000000">LegalsComponent</text>
</g>
<!-- LegalsModule -->
<g id="node2" class="node">
<title>LegalsModule</title>
<polygon fill="#8dd3c7" stroke="#000000" points="283.3669,-187 280.3669,-191 259.3669,-191 256.3669,-187 186.6331,-187 186.6331,-151 283.3669,-151 283.3669,-187"/>
<text text-anchor="middle" x="235" y="-164.8" font-family="Times,serif" font-size="14.00" fill="#000000">LegalsModule</text>
</g>
<!-- LegalsComponent&#45;&gt;LegalsModule -->
<g id="edge1" class="edge">
<title>LegalsComponent&#45;&gt;LegalsModule</title>
<path fill="none" stroke="#000000" d="M389,-122.1061C389,-141.3391 389,-169 389,-169 389,-169 293.7266,-169 293.7266,-169"/>
<polygon fill="#000000" stroke="#000000" points="293.7266,-165.5001 283.7266,-169 293.7265,-172.5001 293.7266,-165.5001"/>
</g>
<!-- LegalsRoutingModule -->
<g id="node3" class="node">
<title>LegalsRoutingModule</title>
<polygon fill="#8dd3c7" stroke="#000000" points="305.9846,-122 302.9846,-126 281.9846,-126 278.9846,-122 164.0154,-122 164.0154,-86 305.9846,-86 305.9846,-122"/>
<text text-anchor="middle" x="235" y="-99.8" font-family="Times,serif" font-size="14.00" fill="#000000">LegalsRoutingModule</text>
</g>
<!-- LegalsRoutingModule&#45;&gt;LegalsModule -->
<g id="edge2" class="edge">
<title>LegalsRoutingModule&#45;&gt;LegalsModule</title>
<path fill="none" stroke="#000000" d="M235,-122.1061C235,-122.1061 235,-140.991 235,-140.991"/>
<polygon fill="#000000" stroke="#000000" points="231.5001,-140.9909 235,-150.991 238.5001,-140.991 231.5001,-140.9909"/>
</g>
<!-- SharedModule -->
<g id="node4" class="node">
<title>SharedModule</title>
<polygon fill="#8dd3c7" stroke="#000000" points="146.4231,-122 143.4231,-126 122.4231,-126 119.4231,-122 47.5769,-122 47.5769,-86 146.4231,-86 146.4231,-122"/>
<text text-anchor="middle" x="97" y="-99.8" font-family="Times,serif" font-size="14.00" fill="#000000">SharedModule</text>
</g>
<!-- SharedModule&#45;&gt;LegalsModule -->
<g id="edge3" class="edge">
<title>SharedModule&#45;&gt;LegalsModule</title>
<path fill="none" stroke="#000000" d="M97,-122.1061C97,-141.3391 97,-169 97,-169 97,-169 176.3464,-169 176.3464,-169"/>
<polygon fill="#000000" stroke="#000000" points="176.3464,-172.5001 186.3464,-169 176.3463,-165.5001 176.3464,-172.5001"/>
</g>
</g>
</svg>
