<?xml version="1.0" encoding="UTF-8" standalone="no"?>
<!DOCTYPE svg PUBLIC "-//W3C//DTD SVG 1.1//EN"
 "http://www.w3.org/Graphics/SVG/1.1/DTD/svg11.dtd">
<!-- Generated by graphviz version 2.40.1 (20161225.0304)
 -->
<!-- Title: dependencies Pages: 1 -->
<svg width="1044pt" height="211pt"
 viewBox="0.00 0.00 1044.00 211.00" xmlns="http://www.w3.org/2000/svg" xmlns:xlink="http://www.w3.org/1999/xlink">
<g id="graph0" class="graph" transform="scale(1 1) rotate(0) translate(4 207)">
<title>dependencies</title>
<polygon fill="#ffffff" stroke="transparent" points="-4,4 -4,-207 1040,-207 1040,4 -4,4"/>
<text text-anchor="start" x="497.0091" y="-42.4" font-family="sans-serif" font-weight="bold" font-size="14.00" fill="#000000">Legend</text>
<polygon fill="#ffffb3" stroke="transparent" points="284,-10 284,-30 304,-30 304,-10 284,-10"/>
<text text-anchor="start" x="307.629" y="-15.4" font-family="sans-serif" font-size="14.00" fill="#000000"> &#160;Declarations</text>
<polygon fill="#8dd3c7" stroke="transparent" points="397,-10 397,-30 417,-30 417,-10 397,-10"/>
<text text-anchor="start" x="420.7251" y="-15.4" font-family="sans-serif" font-size="14.00" fill="#000000"> &#160;Module</text>
<polygon fill="#80b1d3" stroke="transparent" points="483,-10 483,-30 503,-30 503,-10 483,-10"/>
<text text-anchor="start" x="506.7812" y="-15.4" font-family="sans-serif" font-size="14.00" fill="#000000"> &#160;Bootstrap</text>
<polygon fill="#fdb462" stroke="transparent" points="580,-10 580,-30 600,-30 600,-10 580,-10"/>
<text text-anchor="start" x="603.6732" y="-15.4" font-family="sans-serif" font-size="14.00" fill="#000000"> &#160;Providers</text>
<polygon fill="#fb8072" stroke="transparent" points="676,-10 676,-30 696,-30 696,-10 676,-10"/>
<text text-anchor="start" x="699.7258" y="-15.4" font-family="sans-serif" font-size="14.00" fill="#000000"> &#160;Exports</text>
<g id="clust1" class="cluster">
<title>cluster_VisitorModule</title>
<polygon fill="none" stroke="#000000" stroke-dasharray="1,5" points="8,-70 8,-195 1028,-195 1028,-70 8,-70"/>
</g>
<g id="clust2" class="cluster">
<title>cluster_VisitorModule_declarations</title>
<polygon fill="none" stroke="#000000" points="440,-78 440,-130 1020,-130 1020,-78 440,-78"/>
</g>
<g id="clust7" class="cluster">
<title>cluster_VisitorModule_imports</title>
<polygon fill="none" stroke="#000000" points="156,-78 156,-130 432,-130 432,-78 156,-78"/>
</g>
<g id="clust10" class="cluster">
<title>cluster_VisitorModule_providers</title>
<polygon fill="none" stroke="#000000" points="16,-78 16,-130 148,-130 148,-78 16,-78"/>
</g>
<!-- ForgotComponent -->
<g id="node1" class="node">
<title>ForgotComponent</title>
<polygon fill="#ffffb3" stroke="#000000" points="1012.1667,-122 893.8333,-122 893.8333,-86 1012.1667,-86 1012.1667,-122"/>
<text text-anchor="middle" x="953" y="-99.8" font-family="Times,serif" font-size="14.00" fill="#000000">ForgotComponent</text>
</g>
<!-- VisitorModule -->
<g id="node5" class="node">
<title>VisitorModule</title>
<polygon fill="#8dd3c7" stroke="#000000" points="554.4344,-187 551.4344,-191 530.4344,-191 527.4344,-187 455.5656,-187 455.5656,-151 554.4344,-151 554.4344,-187"/>
<text text-anchor="middle" x="505" y="-164.8" font-family="Times,serif" font-size="14.00" fill="#000000">VisitorModule</text>
</g>
<!-- ForgotComponent&#45;&gt;VisitorModule -->
<g id="edge1" class="edge">
<title>ForgotComponent&#45;&gt;VisitorModule</title>
<path fill="none" stroke="#000000" d="M953,-122.2921C953,-144.2057 953,-178 953,-178 953,-178 564.2254,-178 564.2254,-178"/>
<polygon fill="#000000" stroke="#000000" points="564.2254,-174.5001 554.2254,-178 564.2253,-181.5001 564.2254,-174.5001"/>
</g>
<!-- InscriptionComponent -->
<g id="node2" class="node">
<title>InscriptionComponent</title>
<polygon fill="#ffffb3" stroke="#000000" points="875.9846,-122 734.0154,-122 734.0154,-86 875.9846,-86 875.9846,-122"/>
<text text-anchor="middle" x="805" y="-99.8" font-family="Times,serif" font-size="14.00" fill="#000000">InscriptionComponent</text>
</g>
<!-- InscriptionComponent&#45;&gt;VisitorModule -->
<g id="edge2" class="edge">
<title>InscriptionComponent&#45;&gt;VisitorModule</title>
<path fill="none" stroke="#000000" d="M805,-122.1061C805,-141.3391 805,-169 805,-169 805,-169 564.5389,-169 564.5389,-169"/>
<polygon fill="#000000" stroke="#000000" points="564.5389,-165.5001 554.5389,-169 564.5389,-172.5001 564.5389,-165.5001"/>
</g>
<!-- InvitationComponent -->
<g id="node3" class="node">
<title>InvitationComponent</title>
<polygon fill="#ffffb3" stroke="#000000" points="715.7702,-122 580.2298,-122 580.2298,-86 715.7702,-86 715.7702,-122"/>
<text text-anchor="middle" x="648" y="-99.8" font-family="Times,serif" font-size="14.00" fill="#000000">InvitationComponent</text>
</g>
<!-- InvitationComponent&#45;&gt;VisitorModule -->
<g id="edge3" class="edge">
<title>InvitationComponent&#45;&gt;VisitorModule</title>
<path fill="none" stroke="#000000" d="M648,-122.027C648,-138.3976 648,-160 648,-160 648,-160 564.6131,-160 564.6131,-160"/>
<polygon fill="#000000" stroke="#000000" points="564.6132,-156.5001 554.6131,-160 564.6131,-163.5001 564.6132,-156.5001"/>
</g>
<!-- LoginComponent -->
<g id="node4" class="node">
<title>LoginComponent</title>
<polygon fill="#ffffb3" stroke="#000000" points="562.2758,-122 447.7242,-122 447.7242,-86 562.2758,-86 562.2758,-122"/>
<text text-anchor="middle" x="505" y="-99.8" font-family="Times,serif" font-size="14.00" fill="#000000">LoginComponent</text>
</g>
<!-- LoginComponent&#45;&gt;VisitorModule -->
<g id="edge4" class="edge">
<title>LoginComponent&#45;&gt;VisitorModule</title>
<path fill="none" stroke="#000000" d="M505,-122.1061C505,-122.1061 505,-140.991 505,-140.991"/>
<polygon fill="#000000" stroke="#000000" points="501.5001,-140.9909 505,-150.991 508.5001,-140.991 501.5001,-140.9909"/>
</g>
<!-- SharedModule -->
<g id="node6" class="node">
<title>SharedModule</title>
<polygon fill="#8dd3c7" stroke="#000000" points="424.4231,-122 421.4231,-126 400.4231,-126 397.4231,-122 325.5769,-122 325.5769,-86 424.4231,-86 424.4231,-122"/>
<text text-anchor="middle" x="375" y="-99.8" font-family="Times,serif" font-size="14.00" fill="#000000">SharedModule</text>
</g>
<!-- SharedModule&#45;&gt;VisitorModule -->
<g id="edge5" class="edge">
<title>SharedModule&#45;&gt;VisitorModule</title>
<path fill="none" stroke="#000000" d="M375,-122.027C375,-138.3976 375,-160 375,-160 375,-160 445.4817,-160 445.4817,-160"/>
<polygon fill="#000000" stroke="#000000" points="445.4818,-163.5001 455.4817,-160 445.4817,-156.5001 445.4818,-163.5001"/>
</g>
<!-- VisitorRoutingModule -->
<g id="node7" class="node">
<title>VisitorRoutingModule</title>
<polygon fill="#8dd3c7" stroke="#000000" points="307.5519,-122 304.5519,-126 283.5519,-126 280.5519,-122 164.4481,-122 164.4481,-86 307.5519,-86 307.5519,-122"/>
<text text-anchor="middle" x="236" y="-99.8" font-family="Times,serif" font-size="14.00" fill="#000000">VisitorRoutingModule</text>
</g>
<!-- VisitorRoutingModule&#45;&gt;VisitorModule -->
<g id="edge6" class="edge">
<title>VisitorRoutingModule&#45;&gt;VisitorModule</title>
<path fill="none" stroke="#000000" d="M236,-122.1061C236,-141.3391 236,-169 236,-169 236,-169 445.6613,-169 445.6613,-169"/>
<polygon fill="#000000" stroke="#000000" points="445.6613,-172.5001 455.6613,-169 445.6612,-165.5001 445.6613,-172.5001"/>
</g>
<!-- UserService -->
<g id="node8" class="node">
<title>UserService</title>
<ellipse fill="#fdb462" stroke="#000000" cx="82" cy="-104" rx="58.4415" ry="18"/>
<text text-anchor="middle" x="82" y="-99.8" font-family="Times,serif" font-size="14.00" fill="#000000">UserService</text>
</g>
<!-- UserService&#45;&gt;VisitorModule -->
<g id="edge7" class="edge">
<title>UserService&#45;&gt;VisitorModule</title>
<path fill="none" stroke="#000000" d="M82,-122.2921C82,-144.2057 82,-178 82,-178 82,-178 445.6487,-178 445.6487,-178"/>
<polygon fill="#000000" stroke="#000000" points="445.6487,-181.5001 455.6487,-178 445.6486,-174.5001 445.6487,-181.5001"/>
</g>
</g>
</svg>
