<?xml version="1.0" encoding="UTF-8" standalone="no"?>
<!DOCTYPE svg PUBLIC "-//W3C//DTD SVG 1.1//EN"
 "http://www.w3.org/Graphics/SVG/1.1/DTD/svg11.dtd">
<!-- Generated by graphviz version 2.40.1 (20161225.0304)
 -->
<!-- Title: dependencies Pages: 1 -->
<svg width="4381pt" height="360pt"
 viewBox="0.00 0.00 4381.00 360.00" xmlns="http://www.w3.org/2000/svg" xmlns:xlink="http://www.w3.org/1999/xlink">
<g id="graph0" class="graph" transform="scale(1 1) rotate(0) translate(4 356)">
<title>dependencies</title>
<polygon fill="#ffffff" stroke="transparent" points="-4,4 -4,-356 4377,-356 4377,4 -4,4"/>
<text text-anchor="start" x="2165.5091" y="-42.4" font-family="sans-serif" font-weight="bold" font-size="14.00" fill="#000000">Legend</text>
<polygon fill="#ffffb3" stroke="transparent" points="1952.5,-10 1952.5,-30 1972.5,-30 1972.5,-10 1952.5,-10"/>
<text text-anchor="start" x="1976.129" y="-15.4" font-family="sans-serif" font-size="14.00" fill="#000000"> &#160;Declarations</text>
<polygon fill="#8dd3c7" stroke="transparent" points="2065.5,-10 2065.5,-30 2085.5,-30 2085.5,-10 2065.5,-10"/>
<text text-anchor="start" x="2089.2251" y="-15.4" font-family="sans-serif" font-size="14.00" fill="#000000"> &#160;Module</text>
<polygon fill="#80b1d3" stroke="transparent" points="2151.5,-10 2151.5,-30 2171.5,-30 2171.5,-10 2151.5,-10"/>
<text text-anchor="start" x="2175.2812" y="-15.4" font-family="sans-serif" font-size="14.00" fill="#000000"> &#160;Bootstrap</text>
<polygon fill="#fdb462" stroke="transparent" points="2248.5,-10 2248.5,-30 2268.5,-30 2268.5,-10 2248.5,-10"/>
<text text-anchor="start" x="2272.1732" y="-15.4" font-family="sans-serif" font-size="14.00" fill="#000000"> &#160;Providers</text>
<polygon fill="#fb8072" stroke="transparent" points="2344.5,-10 2344.5,-30 2364.5,-30 2364.5,-10 2344.5,-10"/>
<text text-anchor="start" x="2368.2258" y="-15.4" font-family="sans-serif" font-size="14.00" fill="#000000"> &#160;Exports</text>
<g id="clust1" class="cluster">
<title>cluster_AppModule</title>
<polygon fill="none" stroke="#000000" stroke-dasharray="1,5" points="694,-146 694,-344 1089,-344 1089,-146 694,-146"/>
</g>
<g id="clust2" class="cluster">
<title>cluster_AppModule_declarations</title>
<polygon fill="none" stroke="#000000" points="959,-154 959,-206 1081,-206 1081,-154 959,-154"/>
</g>
<g id="clust4" class="cluster">
<title>cluster_AppModule_imports</title>
<polygon fill="none" stroke="#000000" points="702,-154 702,-206 951,-206 951,-154 702,-154"/>
</g>
<g id="clust6" class="cluster">
<title>cluster_AppModule_bootstrap</title>
<polygon fill="none" stroke="#000000" points="817,-284 817,-336 941,-336 941,-284 817,-284"/>
</g>
<g id="clust20" class="cluster">
<title>cluster_CoreModule</title>
<polygon fill="none" stroke="#000000" stroke-dasharray="1,5" points="8,-70 8,-138 1597,-138 1597,-70 8,-70"/>
</g>
<g id="clust21" class="cluster">
<title>cluster_CoreModule_declarations</title>
<polygon fill="none" stroke="#000000" points="1203,-78 1203,-130 1589,-130 1589,-78 1203,-78"/>
</g>
<g id="clust24" class="cluster">
<title>cluster_CoreModule_imports</title>
<polygon fill="none" stroke="#000000" points="1045,-78 1045,-130 1195,-130 1195,-78 1045,-78"/>
</g>
<g id="clust25" class="cluster">
<title>cluster_CoreModule_exports</title>
<polygon fill="none" stroke="#000000" points="488,-78 488,-130 1037,-130 1037,-78 488,-78"/>
</g>
<g id="clust27" class="cluster">
<title>cluster_CoreModule_providers</title>
<polygon fill="none" stroke="#000000" points="16,-78 16,-130 480,-130 480,-78 16,-78"/>
</g>
<g id="clust34" class="cluster">
<title>cluster_DashboardModule</title>
<polygon fill="none" stroke="#000000" stroke-dasharray="1,5" points="1605,-70 1605,-206 1969,-206 1969,-70 1605,-70"/>
</g>
<g id="clust35" class="cluster">
<title>cluster_DashboardModule_declarations</title>
<polygon fill="none" stroke="#000000" points="1803,-78 1803,-130 1961,-130 1961,-78 1803,-78"/>
</g>
<g id="clust37" class="cluster">
<title>cluster_DashboardModule_imports</title>
<polygon fill="none" stroke="#000000" points="1613,-78 1613,-130 1795,-130 1795,-78 1613,-78"/>
</g>
<g id="clust47" class="cluster">
<title>cluster_EditEventModule</title>
<polygon fill="none" stroke="#000000" stroke-dasharray="1,5" points="1977,-70 1977,-206 2147,-206 2147,-70 1977,-70"/>
</g>
<g id="clust48" class="cluster">
<title>cluster_EditEventModule_declarations</title>
<polygon fill="none" stroke="#000000" points="1985,-78 1985,-130 2139,-130 2139,-78 1985,-78"/>
</g>
<g id="clust54" class="cluster">
<title>cluster_EventDetailModule</title>
<polygon fill="none" stroke="#000000" stroke-dasharray="1,5" points="2155,-70 2155,-206 2335,-206 2335,-70 2155,-70"/>
</g>
<g id="clust55" class="cluster">
<title>cluster_EventDetailModule_declarations</title>
<polygon fill="none" stroke="#000000" points="2163,-78 2163,-130 2327,-130 2327,-78 2163,-78"/>
</g>
<g id="clust61" class="cluster">
<title>cluster_EventModule</title>
<polygon fill="none" stroke="#000000" stroke-dasharray="1,5" points="2343,-70 2343,-206 2525,-206 2525,-70 2343,-70"/>
</g>
<g id="clust62" class="cluster">
<title>cluster_EventModule_declarations</title>
<polygon fill="none" stroke="#000000" points="2351,-78 2351,-130 2517,-130 2517,-78 2351,-78"/>
</g>
<g id="clust68" class="cluster">
<title>cluster_LoginModule</title>
<polygon fill="none" stroke="#000000" stroke-dasharray="1,5" points="2533,-70 2533,-206 2957,-206 2957,-70 2533,-70"/>
</g>
<g id="clust69" class="cluster">
<title>cluster_LoginModule_declarations</title>
<polygon fill="none" stroke="#000000" points="2541,-78 2541,-130 2671,-130 2671,-78 2541,-78"/>
</g>
<g id="clust71" class="cluster">
<title>cluster_LoginModule_imports</title>
<polygon fill="none" stroke="#000000" points="2679,-78 2679,-130 2949,-130 2949,-78 2679,-78"/>
</g>
<g id="clust81" class="cluster">
<title>cluster_NotificationsModule</title>
<polygon fill="none" stroke="#000000" stroke-dasharray="1,5" points="3325,-70 3325,-206 3713,-206 3713,-70 3325,-70"/>
</g>
<g id="clust82" class="cluster">
<title>cluster_NotificationsModule_declarations</title>
<polygon fill="none" stroke="#000000" points="3535,-78 3535,-130 3705,-130 3705,-78 3535,-78"/>
</g>
<g id="clust84" class="cluster">
<title>cluster_NotificationsModule_imports</title>
<polygon fill="none" stroke="#000000" points="3333,-78 3333,-130 3527,-130 3527,-78 3333,-78"/>
</g>
<g id="clust94" class="cluster">
<title>cluster_ProfileModule</title>
<polygon fill="none" stroke="#000000" stroke-dasharray="1,5" points="3721,-70 3721,-206 4039,-206 4039,-70 3721,-70"/>
</g>
<g id="clust95" class="cluster">
<title>cluster_ProfileModule_declarations</title>
<polygon fill="none" stroke="#000000" points="3895,-78 3895,-130 4031,-130 4031,-78 3895,-78"/>
</g>
<g id="clust97" class="cluster">
<title>cluster_ProfileModule_imports</title>
<polygon fill="none" stroke="#000000" points="3729,-78 3729,-130 3887,-130 3887,-78 3729,-78"/>
</g>
<g id="clust107" class="cluster">
<title>cluster_SearchModule</title>
<polygon fill="none" stroke="#000000" stroke-dasharray="1,5" points="4047,-70 4047,-206 4365,-206 4365,-70 4047,-70"/>
</g>
<g id="clust108" class="cluster">
<title>cluster_SearchModule_declarations</title>
<polygon fill="none" stroke="#000000" points="4221,-78 4221,-130 4357,-130 4357,-78 4221,-78"/>
</g>
<g id="clust110" class="cluster">
<title>cluster_SearchModule_imports</title>
<polygon fill="none" stroke="#000000" points="4055,-78 4055,-130 4213,-130 4213,-78 4055,-78"/>
</g>
<g id="clust126" class="cluster">
<title>cluster_SharedModule</title>
<polygon fill="none" stroke="#000000" stroke-dasharray="1,5" points="2965,-146 2965,-214 3317,-214 3317,-146 2965,-146"/>
</g>
<g id="clust128" class="cluster">
<title>cluster_SharedModule_imports</title>
<polygon fill="none" stroke="#000000" points="3147,-154 3147,-206 3309,-206 3309,-154 3147,-154"/>
</g>
<g id="clust129" class="cluster">
<title>cluster_SharedModule_exports</title>
<polygon fill="none" stroke="#000000" points="2973,-154 2973,-206 3139,-206 3139,-154 2973,-154"/>
</g>
<!-- AppComponent -->
<g id="node1" class="node">
<title>AppComponent</title>
<polygon fill="#ffffb3" stroke="#000000" points="1072.9399,-198 967.0601,-198 967.0601,-162 1072.9399,-162 1072.9399,-198"/>
<text text-anchor="middle" x="1020" y="-175.8" font-family="Times,serif" font-size="14.00" fill="#000000">AppComponent</text>
</g>
<!-- AppModule -->
<g id="node2" class="node">
<title>AppModule</title>
<polygon fill="#8dd3c7" stroke="#000000" points="920.6571,-263 917.6571,-267 896.6571,-267 893.6571,-263 837.3429,-263 837.3429,-227 920.6571,-227 920.6571,-263"/>
<text text-anchor="middle" x="879" y="-240.8" font-family="Times,serif" font-size="14.00" fill="#000000">AppModule</text>
</g>
<!-- AppComponent&#45;&gt;AppModule -->
<g id="edge1" class="edge">
<title>AppComponent&#45;&gt;AppModule</title>
<path fill="none" stroke="#000000" d="M1020,-198.1061C1020,-217.3391 1020,-245 1020,-245 1020,-245 930.9229,-245 930.9229,-245"/>
<polygon fill="#000000" stroke="#000000" points="930.9229,-241.5001 920.9229,-245 930.9229,-248.5001 930.9229,-241.5001"/>
</g>
<!-- AppComponent  -->
<g id="node5" class="node">
<title>AppComponent </title>
<polygon fill="#80b1d3" stroke="#000000" points="933.439,-328 824.561,-328 824.561,-292 933.439,-292 933.439,-328"/>
<text text-anchor="middle" x="879" y="-305.8" font-family="Times,serif" font-size="14.00" fill="#000000">AppComponent </text>
</g>
<!-- AppModule&#45;&gt;AppComponent  -->
<g id="edge4" class="edge">
<title>AppModule&#45;&gt;AppComponent </title>
<path fill="none" stroke="#000000" stroke-dasharray="1,5" d="M879,-263.1061C879,-263.1061 879,-281.991 879,-281.991"/>
<polygon fill="#000000" stroke="#000000" points="875.5001,-281.9909 879,-291.991 882.5001,-281.991 875.5001,-281.9909"/>
</g>
<!-- AppRoutingModule -->
<g id="node3" class="node">
<title>AppRoutingModule</title>
<polygon fill="#8dd3c7" stroke="#000000" points="943.2744,-198 940.2744,-202 919.2744,-202 916.2744,-198 814.7256,-198 814.7256,-162 943.2744,-162 943.2744,-198"/>
<text text-anchor="middle" x="879" y="-175.8" font-family="Times,serif" font-size="14.00" fill="#000000">AppRoutingModule</text>
</g>
<!-- AppRoutingModule&#45;&gt;AppModule -->
<g id="edge2" class="edge">
<title>AppRoutingModule&#45;&gt;AppModule</title>
<path fill="none" stroke="#000000" d="M879,-198.1061C879,-198.1061 879,-216.991 879,-216.991"/>
<polygon fill="#000000" stroke="#000000" points="875.5001,-216.9909 879,-226.991 882.5001,-216.991 875.5001,-216.9909"/>
</g>
<!-- CoreModule -->
<g id="node4" class="node">
<title>CoreModule</title>
<polygon fill="#8dd3c7" stroke="#000000" points="796.2619,-198 793.2619,-202 772.2619,-202 769.2619,-198 709.7381,-198 709.7381,-162 796.2619,-162 796.2619,-198"/>
<text text-anchor="middle" x="753" y="-175.8" font-family="Times,serif" font-size="14.00" fill="#000000">CoreModule</text>
</g>
<!-- CoreModule&#45;&gt;AppModule -->
<g id="edge3" class="edge">
<title>CoreModule&#45;&gt;AppModule</title>
<path fill="none" stroke="#000000" d="M753,-198.1061C753,-217.3391 753,-245 753,-245 753,-245 827.0438,-245 827.0438,-245"/>
<polygon fill="#000000" stroke="#000000" points="827.0439,-248.5001 837.0438,-245 827.0438,-241.5001 827.0439,-248.5001"/>
</g>
<!-- BottomNavigationComponent  -->
<g id="node9" class="node">
<title>BottomNavigationComponent </title>
<polygon fill="#fb8072" stroke="#000000" points="1028.5484,-122 839.4516,-122 839.4516,-86 1028.5484,-86 1028.5484,-122"/>
<text text-anchor="middle" x="934" y="-99.8" font-family="Times,serif" font-size="14.00" fill="#000000">BottomNavigationComponent </text>
</g>
<!-- CoreModule&#45;&gt;BottomNavigationComponent  -->
<g id="edge8" class="edge">
<title>CoreModule&#45;&gt;BottomNavigationComponent </title>
<path fill="none" stroke="#000000" stroke-dasharray="5,2" d="M781.9205,-161.9489C781.9205,-147.627 781.9205,-130 781.9205,-130 781.9205,-130 891.4315,-130 891.4315,-130 891.4315,-130 891.4315,-129.2058 891.4315,-129.2058"/>
<polygon fill="#000000" stroke="#000000" points="894.9316,-132.0578 891.4315,-122.0579 887.9316,-132.0579 894.9316,-132.0578"/>
</g>
<!-- CoreMaterialModule  -->
<g id="node10" class="node">
<title>CoreMaterialModule </title>
<polygon fill="#fb8072" stroke="#000000" points="821.6828,-122 684.3172,-122 684.3172,-86 821.6828,-86 821.6828,-122"/>
<text text-anchor="middle" x="753" y="-99.8" font-family="Times,serif" font-size="14.00" fill="#000000">CoreMaterialModule </text>
</g>
<!-- CoreModule&#45;&gt;CoreMaterialModule  -->
<g id="edge9" class="edge">
<title>CoreModule&#45;&gt;CoreMaterialModule </title>
<path fill="none" stroke="#000000" stroke-dasharray="5,2" d="M724.0795,-161.9891C724.0795,-161.9891 724.0795,-132.145 724.0795,-132.145"/>
<polygon fill="#000000" stroke="#000000" points="727.5796,-132.145 724.0795,-122.145 720.5796,-132.1451 727.5796,-132.145"/>
</g>
<!-- TopNavigationComponent  -->
<g id="node11" class="node">
<title>TopNavigationComponent </title>
<polygon fill="#fb8072" stroke="#000000" points="665.5931,-122 496.4069,-122 496.4069,-86 665.5931,-86 665.5931,-122"/>
<text text-anchor="middle" x="581" y="-99.8" font-family="Times,serif" font-size="14.00" fill="#000000">TopNavigationComponent </text>
</g>
<!-- CoreModule&#45;&gt;TopNavigationComponent  -->
<g id="edge10" class="edge">
<title>CoreModule&#45;&gt;TopNavigationComponent </title>
<path fill="none" stroke="#000000" stroke-dasharray="5,2" d="M709.5971,-170C658.6436,-170 581,-170 581,-170 581,-170 581,-132.0348 581,-132.0348"/>
<polygon fill="#000000" stroke="#000000" points="584.5001,-132.0348 581,-122.0348 577.5001,-132.0348 584.5001,-132.0348"/>
</g>
<!-- BottomNavigationComponent -->
<g id="node6" class="node">
<title>BottomNavigationComponent</title>
<polygon fill="#ffffb3" stroke="#000000" points="1580.5489,-122 1395.4511,-122 1395.4511,-86 1580.5489,-86 1580.5489,-122"/>
<text text-anchor="middle" x="1488" y="-99.8" font-family="Times,serif" font-size="14.00" fill="#000000">BottomNavigationComponent</text>
</g>
<!-- BottomNavigationComponent&#45;&gt;CoreModule -->
<g id="edge5" class="edge">
<title>BottomNavigationComponent&#45;&gt;CoreModule</title>
<path fill="none" stroke="#000000" d="M1488,-122.0511C1488,-136.373 1488,-154 1488,-154 1488,-154 767.4603,-154 767.4603,-154 767.4603,-154 767.4603,-154.7942 767.4603,-154.7942"/>
<polygon fill="#000000" stroke="#000000" points="763.9604,-151.9421 767.4603,-161.9421 770.9604,-151.9422 763.9604,-151.9421"/>
</g>
<!-- TopNavigationComponent -->
<g id="node7" class="node">
<title>TopNavigationComponent</title>
<polygon fill="#ffffb3" stroke="#000000" points="1377.0926,-122 1210.9074,-122 1210.9074,-86 1377.0926,-86 1377.0926,-122"/>
<text text-anchor="middle" x="1294" y="-99.8" font-family="Times,serif" font-size="14.00" fill="#000000">TopNavigationComponent</text>
</g>
<!-- TopNavigationComponent&#45;&gt;CoreModule -->
<g id="edge6" class="edge">
<title>TopNavigationComponent&#45;&gt;CoreModule</title>
<path fill="none" stroke="#000000" d="M1294,-122.0555C1294,-133.439 1294,-146 1294,-146 1294,-146 753,-146 753,-146 753,-146 753,-151.8056 753,-151.8056"/>
<polygon fill="#000000" stroke="#000000" points="749.5001,-151.8055 753,-161.8056 756.5001,-151.8056 749.5001,-151.8055"/>
</g>
<!-- CoreMaterialModule -->
<g id="node8" class="node">
<title>CoreMaterialModule</title>
<polygon fill="#8dd3c7" stroke="#000000" points="1187.1825,-122 1184.1825,-126 1163.1825,-126 1160.1825,-122 1052.8175,-122 1052.8175,-86 1187.1825,-86 1187.1825,-122"/>
<text text-anchor="middle" x="1120" y="-99.8" font-family="Times,serif" font-size="14.00" fill="#000000">CoreMaterialModule</text>
</g>
<!-- CoreMaterialModule&#45;&gt;CoreModule -->
<g id="edge7" class="edge">
<title>CoreMaterialModule&#45;&gt;CoreModule</title>
<path fill="none" stroke="#000000" d="M1062.8142,-122.1944C1062.8142,-130.2782 1062.8142,-138 1062.8142,-138 1062.8142,-138 738.5397,-138 738.5397,-138 738.5397,-138 738.5397,-151.9445 738.5397,-151.9445"/>
<polygon fill="#000000" stroke="#000000" points="735.0398,-151.9444 738.5397,-161.9445 742.0398,-151.9445 735.0398,-151.9444"/>
</g>
<!-- AuthInterceptor -->
<g id="node12" class="node">
<title>AuthInterceptor</title>
<ellipse fill="#fdb462" stroke="#000000" cx="399" cy="-104" rx="72.9121" ry="18"/>
<text text-anchor="middle" x="399" y="-99.8" font-family="Times,serif" font-size="14.00" fill="#000000">AuthInterceptor</text>
</g>
<!-- AuthInterceptor&#45;&gt;CoreModule -->
<g id="edge11" class="edge">
<title>AuthInterceptor&#45;&gt;CoreModule</title>
<path fill="none" stroke="#000000" d="M399,-122.0449C399,-143.6623 399,-177 399,-177 399,-177 699.5927,-177 699.5927,-177"/>
<polygon fill="#000000" stroke="#000000" points="699.5927,-180.5001 709.5927,-177 699.5926,-173.5001 699.5927,-180.5001"/>
</g>
<!-- AuthService -->
<g id="node13" class="node">
<title>AuthService</title>
<ellipse fill="#fdb462" stroke="#000000" cx="249" cy="-104" rx="59.1083" ry="18"/>
<text text-anchor="middle" x="249" y="-99.8" font-family="Times,serif" font-size="14.00" fill="#000000">AuthService</text>
</g>
<!-- AuthService&#45;&gt;CoreModule -->
<g id="edge12" class="edge">
<title>AuthService&#45;&gt;CoreModule</title>
<path fill="none" stroke="#000000" d="M249,-122.1532C249,-145.7566 249,-184 249,-184 249,-184 699.593,-184 699.593,-184"/>
<polygon fill="#000000" stroke="#000000" points="699.5931,-187.5001 709.593,-184 699.593,-180.5001 699.5931,-187.5001"/>
</g>
<!-- ErrorInterceptor -->
<g id="node14" class="node">
<title>ErrorInterceptor</title>
<ellipse fill="#fdb462" stroke="#000000" cx="98" cy="-104" rx="73.5329" ry="18"/>
<text text-anchor="middle" x="98" y="-99.8" font-family="Times,serif" font-size="14.00" fill="#000000">ErrorInterceptor</text>
</g>
<!-- ErrorInterceptor&#45;&gt;CoreModule -->
<g id="edge13" class="edge">
<title>ErrorInterceptor&#45;&gt;CoreModule</title>
<path fill="none" stroke="#000000" d="M98,-122.0265C98,-147.5093 98,-191 98,-191 98,-191 699.5164,-191 699.5164,-191"/>
<polygon fill="#000000" stroke="#000000" points="699.5164,-194.5001 709.5164,-191 699.5163,-187.5001 699.5164,-194.5001"/>
</g>
<!-- DashboardComponent -->
<g id="node15" class="node">
<title>DashboardComponent</title>
<polygon fill="#ffffb3" stroke="#000000" points="1952.9734,-122 1811.0266,-122 1811.0266,-86 1952.9734,-86 1952.9734,-122"/>
<text text-anchor="middle" x="1882" y="-99.8" font-family="Times,serif" font-size="14.00" fill="#000000">DashboardComponent</text>
</g>
<!-- DashboardModule -->
<g id="node16" class="node">
<title>DashboardModule</title>
<polygon fill="#8dd3c7" stroke="#000000" points="1853.191,-198 1850.191,-202 1829.191,-202 1826.191,-198 1732.809,-198 1732.809,-162 1853.191,-162 1853.191,-198"/>
<text text-anchor="middle" x="1793" y="-175.8" font-family="Times,serif" font-size="14.00" fill="#000000">DashboardModule</text>
</g>
<!-- DashboardComponent&#45;&gt;DashboardModule -->
<g id="edge14" class="edge">
<title>DashboardComponent&#45;&gt;DashboardModule</title>
<path fill="none" stroke="#000000" d="M1832.0544,-122.0109C1832.0544,-122.0109 1832.0544,-151.855 1832.0544,-151.855"/>
<polygon fill="#000000" stroke="#000000" points="1828.5544,-151.8549 1832.0544,-161.855 1835.5544,-151.855 1828.5544,-151.8549"/>
</g>
<!-- DashboardRoutingModule -->
<g id="node17" class="node">
<title>DashboardRoutingModule</title>
<polygon fill="#8dd3c7" stroke="#000000" points="1786.8089,-122 1783.8089,-126 1762.8089,-126 1759.8089,-122 1621.1911,-122 1621.1911,-86 1786.8089,-86 1786.8089,-122"/>
<text text-anchor="middle" x="1704" y="-99.8" font-family="Times,serif" font-size="14.00" fill="#000000">DashboardRoutingModule</text>
</g>
<!-- DashboardRoutingModule&#45;&gt;DashboardModule -->
<g id="edge15" class="edge">
<title>DashboardRoutingModule&#45;&gt;DashboardModule</title>
<path fill="none" stroke="#000000" d="M1759.7795,-122.0109C1759.7795,-122.0109 1759.7795,-151.855 1759.7795,-151.855"/>
<polygon fill="#000000" stroke="#000000" points="1756.2795,-151.8549 1759.7795,-161.855 1763.2795,-151.855 1756.2795,-151.8549"/>
</g>
<!-- EditEventComponent -->
<g id="node18" class="node">
<title>EditEventComponent</title>
<polygon fill="#ffffb3" stroke="#000000" points="2130.8244,-122 1993.1756,-122 1993.1756,-86 2130.8244,-86 2130.8244,-122"/>
<text text-anchor="middle" x="2062" y="-99.8" font-family="Times,serif" font-size="14.00" fill="#000000">EditEventComponent</text>
</g>
<!-- EditEventModule -->
<g id="node19" class="node">
<title>EditEventModule</title>
<polygon fill="#8dd3c7" stroke="#000000" points="2119.5423,-198 2116.5423,-202 2095.5423,-202 2092.5423,-198 2004.4577,-198 2004.4577,-162 2119.5423,-162 2119.5423,-198"/>
<text text-anchor="middle" x="2062" y="-175.8" font-family="Times,serif" font-size="14.00" fill="#000000">EditEventModule</text>
</g>
<!-- EditEventComponent&#45;&gt;EditEventModule -->
<g id="edge16" class="edge">
<title>EditEventComponent&#45;&gt;EditEventModule</title>
<path fill="none" stroke="#000000" d="M2062,-122.0109C2062,-122.0109 2062,-151.855 2062,-151.855"/>
<polygon fill="#000000" stroke="#000000" points="2058.5001,-151.8549 2062,-161.855 2065.5001,-151.855 2058.5001,-151.8549"/>
</g>
<!-- EventDetailComponent -->
<g id="node20" class="node">
<title>EventDetailComponent</title>
<polygon fill="#ffffb3" stroke="#000000" points="2319.1979,-122 2170.8021,-122 2170.8021,-86 2319.1979,-86 2319.1979,-122"/>
<text text-anchor="middle" x="2245" y="-99.8" font-family="Times,serif" font-size="14.00" fill="#000000">EventDetailComponent</text>
</g>
<!-- EventDetailModule -->
<g id="node21" class="node">
<title>EventDetailModule</title>
<polygon fill="#8dd3c7" stroke="#000000" points="2308.4159,-198 2305.4159,-202 2284.4159,-202 2281.4159,-198 2181.5841,-198 2181.5841,-162 2308.4159,-162 2308.4159,-198"/>
<text text-anchor="middle" x="2245" y="-175.8" font-family="Times,serif" font-size="14.00" fill="#000000">EventDetailModule</text>
</g>
<!-- EventDetailComponent&#45;&gt;EventDetailModule -->
<g id="edge17" class="edge">
<title>EventDetailComponent&#45;&gt;EventDetailModule</title>
<path fill="none" stroke="#000000" d="M2245,-122.0109C2245,-122.0109 2245,-151.855 2245,-151.855"/>
<polygon fill="#000000" stroke="#000000" points="2241.5001,-151.8549 2245,-161.855 2248.5001,-151.855 2241.5001,-151.8549"/>
</g>
<!-- CreateEventComponent -->
<g id="node22" class="node">
<title>CreateEventComponent</title>
<polygon fill="#ffffb3" stroke="#000000" points="2509.0226,-122 2358.9774,-122 2358.9774,-86 2509.0226,-86 2509.0226,-122"/>
<text text-anchor="middle" x="2434" y="-99.8" font-family="Times,serif" font-size="14.00" fill="#000000">CreateEventComponent</text>
</g>
<!-- EventModule -->
<g id="node23" class="node">
<title>EventModule</title>
<polygon fill="#8dd3c7" stroke="#000000" points="2480.2078,-198 2477.2078,-202 2456.2078,-202 2453.2078,-198 2387.7922,-198 2387.7922,-162 2480.2078,-162 2480.2078,-198"/>
<text text-anchor="middle" x="2434" y="-175.8" font-family="Times,serif" font-size="14.00" fill="#000000">EventModule</text>
</g>
<!-- CreateEventComponent&#45;&gt;EventModule -->
<g id="edge18" class="edge">
<title>CreateEventComponent&#45;&gt;EventModule</title>
<path fill="none" stroke="#000000" d="M2434,-122.0109C2434,-122.0109 2434,-151.855 2434,-151.855"/>
<polygon fill="#000000" stroke="#000000" points="2430.5001,-151.8549 2434,-161.855 2437.5001,-151.855 2430.5001,-151.8549"/>
</g>
<!-- LoginComponent -->
<g id="node24" class="node">
<title>LoginComponent</title>
<polygon fill="#ffffb3" stroke="#000000" points="2663.2758,-122 2548.7242,-122 2548.7242,-86 2663.2758,-86 2663.2758,-122"/>
<text text-anchor="middle" x="2606" y="-99.8" font-family="Times,serif" font-size="14.00" fill="#000000">LoginComponent</text>
</g>
<!-- LoginModule -->
<g id="node25" class="node">
<title>LoginModule</title>
<polygon fill="#8dd3c7" stroke="#000000" points="2802.493,-198 2799.493,-202 2778.493,-202 2775.493,-198 2709.507,-198 2709.507,-162 2802.493,-162 2802.493,-198"/>
<text text-anchor="middle" x="2756" y="-175.8" font-family="Times,serif" font-size="14.00" fill="#000000">LoginModule</text>
</g>
<!-- LoginComponent&#45;&gt;LoginModule -->
<g id="edge19" class="edge">
<title>LoginComponent&#45;&gt;LoginModule</title>
<path fill="none" stroke="#000000" d="M2606,-122.0109C2606,-144.4852 2606,-180 2606,-180 2606,-180 2699.3613,-180 2699.3613,-180"/>
<polygon fill="#000000" stroke="#000000" points="2699.3613,-183.5001 2709.3613,-180 2699.3613,-176.5001 2699.3613,-183.5001"/>
</g>
<!-- LoginRoutingModule -->
<g id="node26" class="node">
<title>LoginRoutingModule</title>
<polygon fill="#8dd3c7" stroke="#000000" points="2825.1108,-122 2822.1108,-126 2801.1108,-126 2798.1108,-122 2686.8892,-122 2686.8892,-86 2825.1108,-86 2825.1108,-122"/>
<text text-anchor="middle" x="2756" y="-99.8" font-family="Times,serif" font-size="14.00" fill="#000000">LoginRoutingModule</text>
</g>
<!-- LoginRoutingModule&#45;&gt;LoginModule -->
<g id="edge20" class="edge">
<title>LoginRoutingModule&#45;&gt;LoginModule</title>
<path fill="none" stroke="#000000" d="M2756,-122.0109C2756,-122.0109 2756,-151.855 2756,-151.855"/>
<polygon fill="#000000" stroke="#000000" points="2752.5001,-151.8549 2756,-161.855 2759.5001,-151.855 2752.5001,-151.8549"/>
</g>
<!-- SharedModule -->
<g id="node27" class="node">
<title>SharedModule</title>
<polygon fill="#8dd3c7" stroke="#000000" points="2941.4231,-122 2938.4231,-126 2917.4231,-126 2914.4231,-122 2842.5769,-122 2842.5769,-86 2941.4231,-86 2941.4231,-122"/>
<text text-anchor="middle" x="2892" y="-99.8" font-family="Times,serif" font-size="14.00" fill="#000000">SharedModule</text>
</g>
<!-- SharedModule&#45;&gt;LoginModule -->
<g id="edge21" class="edge">
<title>SharedModule&#45;&gt;LoginModule</title>
<path fill="none" stroke="#000000" d="M2875.5963,-122.1985C2875.5963,-146.3563 2875.5963,-186 2875.5963,-186 2875.5963,-186 2812.5815,-186 2812.5815,-186"/>
<polygon fill="#000000" stroke="#000000" points="2812.5815,-182.5001 2802.5815,-186 2812.5815,-189.5001 2812.5815,-182.5001"/>
</g>
<!-- SharedMaterialModule  -->
<g id="node38" class="node">
<title>SharedMaterialModule </title>
<polygon fill="#fb8072" stroke="#000000" points="3130.8434,-198 2981.1566,-198 2981.1566,-162 3130.8434,-162 3130.8434,-198"/>
<text text-anchor="middle" x="3056" y="-175.8" font-family="Times,serif" font-size="14.00" fill="#000000">SharedMaterialModule </text>
</g>
<!-- SharedModule&#45;&gt;SharedMaterialModule  -->
<g id="edge29" class="edge">
<title>SharedModule&#45;&gt;SharedMaterialModule </title>
<path fill="none" stroke="#000000" stroke-dasharray="5,2" d="M2908.4037,-122.0267C2908.4037,-142.7672 2908.4037,-174 2908.4037,-174 2908.4037,-174 2970.9047,-174 2970.9047,-174"/>
<polygon fill="#000000" stroke="#000000" points="2970.9047,-177.5001 2980.9047,-174 2970.9046,-170.5001 2970.9047,-177.5001"/>
</g>
<!-- NotificationsComponent -->
<g id="node28" class="node">
<title>NotificationsComponent</title>
<polygon fill="#ffffb3" stroke="#000000" points="3697.427,-122 3542.573,-122 3542.573,-86 3697.427,-86 3697.427,-122"/>
<text text-anchor="middle" x="3620" y="-99.8" font-family="Times,serif" font-size="14.00" fill="#000000">NotificationsComponent</text>
</g>
<!-- NotificationsModule -->
<g id="node29" class="node">
<title>NotificationsModule</title>
<polygon fill="#8dd3c7" stroke="#000000" points="3591.1443,-198 3588.1443,-202 3567.1443,-202 3564.1443,-198 3458.8557,-198 3458.8557,-162 3591.1443,-162 3591.1443,-198"/>
<text text-anchor="middle" x="3525" y="-175.8" font-family="Times,serif" font-size="14.00" fill="#000000">NotificationsModule</text>
</g>
<!-- NotificationsComponent&#45;&gt;NotificationsModule -->
<g id="edge22" class="edge">
<title>NotificationsComponent&#45;&gt;NotificationsModule</title>
<path fill="none" stroke="#000000" d="M3567.0544,-122.0109C3567.0544,-122.0109 3567.0544,-151.855 3567.0544,-151.855"/>
<polygon fill="#000000" stroke="#000000" points="3563.5544,-151.8549 3567.0544,-161.855 3570.5544,-151.855 3563.5544,-151.8549"/>
</g>
<!-- NotificationsRoutingModule -->
<g id="node30" class="node">
<title>NotificationsRoutingModule</title>
<polygon fill="#8dd3c7" stroke="#000000" points="3518.7618,-122 3515.7618,-126 3494.7618,-126 3491.7618,-122 3341.2382,-122 3341.2382,-86 3518.7618,-86 3518.7618,-122"/>
<text text-anchor="middle" x="3430" y="-99.8" font-family="Times,serif" font-size="14.00" fill="#000000">NotificationsRoutingModule</text>
</g>
<!-- NotificationsRoutingModule&#45;&gt;NotificationsModule -->
<g id="edge23" class="edge">
<title>NotificationsRoutingModule&#45;&gt;NotificationsModule</title>
<path fill="none" stroke="#000000" d="M3488.7795,-122.0109C3488.7795,-122.0109 3488.7795,-151.855 3488.7795,-151.855"/>
<polygon fill="#000000" stroke="#000000" points="3485.2795,-151.8549 3488.7795,-161.855 3492.2795,-151.855 3485.2795,-151.8549"/>
</g>
<!-- ProfileComponent -->
<g id="node31" class="node">
<title>ProfileComponent</title>
<polygon fill="#ffffb3" stroke="#000000" points="4022.9328,-122 3903.0672,-122 3903.0672,-86 4022.9328,-86 4022.9328,-122"/>
<text text-anchor="middle" x="3963" y="-99.8" font-family="Times,serif" font-size="14.00" fill="#000000">ProfileComponent</text>
</g>
<!-- ProfileModule -->
<g id="node32" class="node">
<title>ProfileModule</title>
<polygon fill="#8dd3c7" stroke="#000000" points="3933.65,-198 3930.65,-202 3909.65,-202 3906.65,-198 3836.35,-198 3836.35,-162 3933.65,-162 3933.65,-198"/>
<text text-anchor="middle" x="3885" y="-175.8" font-family="Times,serif" font-size="14.00" fill="#000000">ProfileModule</text>
</g>
<!-- ProfileComponent&#45;&gt;ProfileModule -->
<g id="edge24" class="edge">
<title>ProfileComponent&#45;&gt;ProfileModule</title>
<path fill="none" stroke="#000000" d="M3918.5544,-122.0109C3918.5544,-122.0109 3918.5544,-151.855 3918.5544,-151.855"/>
<polygon fill="#000000" stroke="#000000" points="3915.0544,-151.8549 3918.5544,-161.855 3922.0544,-151.855 3915.0544,-151.8549"/>
</g>
<!-- ProfileRoutingModule -->
<g id="node33" class="node">
<title>ProfileRoutingModule</title>
<polygon fill="#8dd3c7" stroke="#000000" points="3879.2674,-122 3876.2674,-126 3855.2674,-126 3852.2674,-122 3736.7326,-122 3736.7326,-86 3879.2674,-86 3879.2674,-122"/>
<text text-anchor="middle" x="3808" y="-99.8" font-family="Times,serif" font-size="14.00" fill="#000000">ProfileRoutingModule</text>
</g>
<!-- ProfileRoutingModule&#45;&gt;ProfileModule -->
<g id="edge25" class="edge">
<title>ProfileRoutingModule&#45;&gt;ProfileModule</title>
<path fill="none" stroke="#000000" d="M3857.7795,-122.0109C3857.7795,-122.0109 3857.7795,-151.855 3857.7795,-151.855"/>
<polygon fill="#000000" stroke="#000000" points="3854.2795,-151.8549 3857.7795,-161.855 3861.2795,-151.855 3854.2795,-151.8549"/>
</g>
<!-- SearchComponent -->
<g id="node34" class="node">
<title>SearchComponent</title>
<polygon fill="#ffffb3" stroke="#000000" points="4348.9201,-122 4229.0799,-122 4229.0799,-86 4348.9201,-86 4348.9201,-122"/>
<text text-anchor="middle" x="4289" y="-99.8" font-family="Times,serif" font-size="14.00" fill="#000000">SearchComponent</text>
</g>
<!-- SearchModule -->
<g id="node35" class="node">
<title>SearchModule</title>
<polygon fill="#8dd3c7" stroke="#000000" points="4259.6375,-198 4256.6375,-202 4235.6375,-202 4232.6375,-198 4162.3625,-198 4162.3625,-162 4259.6375,-162 4259.6375,-198"/>
<text text-anchor="middle" x="4211" y="-175.8" font-family="Times,serif" font-size="14.00" fill="#000000">SearchModule</text>
</g>
<!-- SearchComponent&#45;&gt;SearchModule -->
<g id="edge26" class="edge">
<title>SearchComponent&#45;&gt;SearchModule</title>
<path fill="none" stroke="#000000" d="M4244.5544,-122.0109C4244.5544,-122.0109 4244.5544,-151.855 4244.5544,-151.855"/>
<polygon fill="#000000" stroke="#000000" points="4241.0544,-151.8549 4244.5544,-161.855 4248.0544,-151.855 4241.0544,-151.8549"/>
</g>
<!-- SearchRoutingModule -->
<g id="node36" class="node">
<title>SearchRoutingModule</title>
<polygon fill="#8dd3c7" stroke="#000000" points="4205.2548,-122 4202.2548,-126 4181.2548,-126 4178.2548,-122 4062.7452,-122 4062.7452,-86 4205.2548,-86 4205.2548,-122"/>
<text text-anchor="middle" x="4134" y="-99.8" font-family="Times,serif" font-size="14.00" fill="#000000">SearchRoutingModule</text>
</g>
<!-- SearchRoutingModule&#45;&gt;SearchModule -->
<g id="edge27" class="edge">
<title>SearchRoutingModule&#45;&gt;SearchModule</title>
<path fill="none" stroke="#000000" d="M4183.7795,-122.0109C4183.7795,-122.0109 4183.7795,-151.855 4183.7795,-151.855"/>
<polygon fill="#000000" stroke="#000000" points="4180.2795,-151.8549 4183.7795,-161.855 4187.2795,-151.855 4180.2795,-151.8549"/>
</g>
<!-- SharedMaterialModule -->
<g id="node37" class="node">
<title>SharedMaterialModule</title>
<polygon fill="#8dd3c7" stroke="#000000" points="3300.8431,-198 3297.8431,-202 3276.8431,-202 3273.8431,-198 3155.1569,-198 3155.1569,-162 3300.8431,-162 3300.8431,-198"/>
<text text-anchor="middle" x="3228" y="-175.8" font-family="Times,serif" font-size="14.00" fill="#000000">SharedMaterialModule</text>
</g>
<!-- SharedMaterialModule&#45;&gt;SharedModule -->
<g id="edge28" class="edge">
<title>SharedMaterialModule&#45;&gt;SharedModule</title>
<path fill="none" stroke="#000000" d="M3228,-161.9891C3228,-139.5148 3228,-104 3228,-104 3228,-104 2951.2171,-104 2951.2171,-104"/>
<polygon fill="#000000" stroke="#000000" points="2951.2172,-100.5001 2941.2171,-104 2951.2171,-107.5001 2951.2172,-100.5001"/>
</g>
</g>
</svg>
